<?xml version="1.0" encoding="UTF-8"?>
<svg xmlns="http://www.w3.org/2000/svg" xmlns:xlink="http://www.w3.org/1999/xlink" width="200px" height="59px" viewBox="0 0 198 59" version="1.1">
<defs>
<linearGradient id="linear0" gradientUnits="userSpaceOnUse" x1="147.678" y1="60.0762" x2="147.678" y2="-155.087" gradientTransform="matrix(0.980198,0,0,0.983333,0,0)">
<stop offset="0" style="stop-color:rgb(10.196078%,10.196078%,10.196078%);stop-opacity:0.101961;"/>
<stop offset="0.123" style="stop-color:rgb(12.941176%,12.941176%,12.941176%);stop-opacity:0.152941;"/>
<stop offset="0.308" style="stop-color:rgb(20.784314%,20.784314%,20.784314%);stop-opacity:0.227451;"/>
<stop offset="0.532" style="stop-color:rgb(34.117647%,34.117647%,34.117647%);stop-opacity:0.317647;"/>
<stop offset="0.783" style="stop-color:rgb(52.156863%,52.156863%,52.156863%);stop-opacity:0.419608;"/>
<stop offset="1" style="stop-color:rgb(70.196078%,70.196078%,70.196078%);stop-opacity:0.509804;"/>
</linearGradient>
</defs>
<g id="surface1">
<path style=" stroke:none;fill-rule:nonzero;fill:rgb(100%,100%,100%);fill-opacity:1;" d="M 196.054688 51.992188 C 196.054688 52.730469 195.910156 53.464844 195.628906 54.144531 C 195.347656 54.828125 194.933594 55.445312 194.414062 55.96875 C 193.890625 56.492188 193.273438 56.90625 192.59375 57.1875 C 191.914062 57.46875 191.183594 57.613281 190.449219 57.613281 L 6.917969 57.613281 C 5.429688 57.613281 4.003906 57.023438 2.949219 55.96875 C 1.894531 54.914062 1.304688 53.484375 1.300781 51.992188 L 1.300781 7.1875 C 1.304688 5.691406 1.894531 4.261719 2.949219 3.207031 C 4 2.152344 5.429688 1.558594 6.917969 1.558594 L 190.445312 1.558594 C 191.183594 1.558594 191.910156 1.703125 192.59375 1.988281 C 193.273438 2.269531 193.890625 2.683594 194.414062 3.207031 C 194.933594 3.730469 195.347656 4.351562 195.628906 5.03125 C 195.910156 5.714844 196.054688 6.445312 196.054688 7.1875 Z M 196.054688 51.992188 "/>
<path style=" stroke:none;fill-rule:nonzero;fill:rgb(65.098039%,65.098039%,65.098039%);fill-opacity:1;" d="M 190.449219 58.917969 L 6.917969 58.917969 C 5.085938 58.917969 3.328125 58.1875 2.03125 56.890625 C 0.734375 55.59375 0.00390625 53.832031 0 51.992188 L 0 7.1875 C 0.00390625 5.347656 0.734375 3.585938 2.03125 2.285156 C 3.324219 0.984375 5.085938 0.253906 6.917969 0.253906 L 190.445312 0.253906 C 192.28125 0.253906 194.035156 0.988281 195.332031 2.285156 C 196.628906 3.585938 197.359375 5.347656 197.363281 7.1875 L 197.363281 51.992188 C 197.367188 55.8125 194.257812 58.917969 190.449219 58.917969 Z M 190.449219 58.917969 "/>
<path style=" stroke:none;fill-rule:nonzero;fill:rgb(0%,0%,0%);fill-opacity:1;" d="M 196.054688 51.992188 C 196.054688 52.730469 195.910156 53.464844 195.628906 54.144531 C 195.347656 54.828125 194.933594 55.445312 194.414062 55.96875 C 193.890625 56.492188 193.273438 56.90625 192.59375 57.1875 C 191.914062 57.46875 191.183594 57.613281 190.449219 57.613281 L 6.917969 57.613281 C 5.429688 57.613281 4.003906 57.023438 2.949219 55.96875 C 1.894531 54.914062 1.304688 53.484375 1.300781 51.992188 L 1.300781 7.1875 C 1.304688 5.691406 1.894531 4.261719 2.949219 3.207031 C 4 2.152344 5.429688 1.558594 6.917969 1.558594 L 190.445312 1.558594 C 191.183594 1.558594 191.910156 1.703125 192.59375 1.988281 C 193.273438 2.269531 193.890625 2.683594 194.414062 3.207031 C 194.933594 3.730469 195.347656 4.351562 195.628906 5.03125 C 195.910156 5.714844 196.054688 6.445312 196.054688 7.1875 Z M 196.054688 51.992188 "/>
<path style=" stroke:none;fill-rule:nonzero;fill:rgb(100%,100%,100%);fill-opacity:1;" d="M 44.070312 29.277344 C 44.027344 24.550781 47.929688 22.25 48.109375 22.140625 C 45.898438 18.910156 42.472656 18.46875 41.269531 18.433594 C 38.390625 18.128906 35.601562 20.160156 34.136719 20.160156 C 32.640625 20.160156 30.382812 18.460938 27.949219 18.511719 C 24.820312 18.5625 21.890625 20.378906 20.285156 23.203125 C 16.972656 28.957031 19.441406 37.414062 22.617188 42.066406 C 24.207031 44.347656 26.0625 46.886719 28.492188 46.796875 C 30.871094 46.703125 31.757812 45.28125 34.625 45.28125 C 37.46875 45.28125 38.300781 46.796875 40.78125 46.742188 C 43.332031 46.703125 44.9375 44.453125 46.46875 42.152344 C 48.304688 39.542969 49.042969 36.972656 49.074219 36.839844 C 49.015625 36.820312 44.121094 34.945312 44.070312 29.277344 Z M 39.390625 15.371094 C 40.667969 13.769531 41.542969 11.589844 41.300781 9.375 C 39.449219 9.457031 37.136719 10.65625 35.804688 12.226562 C 34.625 13.609375 33.570312 15.875 33.84375 18.003906 C 35.921875 18.160156 38.054688 16.953125 39.390625 15.371094 Z M 39.390625 15.371094 "/>
<path style=" stroke:none;fill-rule:nonzero;fill:url(#linear0);" d="M 190.449219 0.253906 L 92.144531 0.253906 L 130.648438 58.917969 L 190.449219 58.917969 C 192.28125 58.917969 194.039062 58.1875 195.335938 56.886719 C 196.632812 55.589844 197.363281 53.828125 197.367188 51.988281 L 197.367188 7.1875 C 197.363281 5.347656 196.632812 3.585938 195.335938 2.285156 C 194.039062 0.988281 192.28125 0.253906 190.449219 0.253906 Z M 190.449219 0.253906 "/>
<path style=" stroke:none;fill-rule:nonzero;fill:rgb(100%,100%,100%);fill-opacity:1;" d="M 78.5 46.472656 L 75.175781 46.472656 L 73.355469 40.738281 L 67.03125 40.738281 L 65.296875 46.472656 L 62.066406 46.472656 L 68.332031 26.949219 L 72.203125 26.949219 Z M 72.808594 38.332031 L 71.164062 33.234375 C 70.988281 32.710938 70.660156 31.484375 70.179688 29.554688 L 70.121094 29.554688 C 69.929688 30.386719 69.621094 31.613281 69.199219 33.234375 L 67.582031 38.332031 Z M 94.585938 39.261719 C 94.585938 41.652344 93.9375 43.546875 92.640625 44.9375 C 91.480469 46.171875 90.035156 46.789062 88.3125 46.789062 C 86.453125 46.789062 85.117188 46.125 84.304688 44.792969 L 84.304688 52.179688 L 81.1875 52.179688 L 81.1875 37.019531 C 81.1875 35.515625 81.148438 33.976562 81.070312 32.394531 L 83.8125 32.394531 L 83.988281 34.625 L 84.046875 34.625 C 85.085938 32.945312 86.664062 32.105469 88.78125 32.105469 C 90.4375 32.105469 91.820312 32.757812 92.925781 34.074219 C 94.03125 35.386719 94.585938 37.117188 94.585938 39.261719 Z M 91.410156 39.375 C 91.410156 38.003906 91.101562 36.875 90.484375 35.984375 C 89.808594 35.058594 88.90625 34.59375 87.769531 34.59375 C 87 34.59375 86.300781 34.851562 85.675781 35.363281 C 85.050781 35.875 84.640625 36.546875 84.449219 37.375 C 84.363281 37.6875 84.316406 38.007812 84.304688 38.328125 L 84.304688 40.675781 C 84.304688 41.699219 84.617188 42.5625 85.242188 43.269531 C 85.871094 43.976562 86.683594 44.328125 87.683594 44.328125 C 88.859375 44.328125 89.773438 43.871094 90.425781 42.96875 C 91.082031 42.058594 91.410156 40.863281 91.410156 39.375 Z M 110.730469 39.261719 C 110.730469 41.652344 110.082031 43.546875 108.785156 44.9375 C 107.621094 46.171875 106.179688 46.789062 104.457031 46.789062 C 102.597656 46.789062 101.261719 46.125 100.449219 44.792969 L 100.449219 52.179688 L 97.332031 52.179688 L 97.332031 37.019531 C 97.332031 35.515625 97.289062 33.976562 97.214844 32.394531 L 99.957031 32.394531 L 100.132812 34.625 L 100.191406 34.625 C 101.226562 32.945312 102.808594 32.105469 104.925781 32.105469 C 106.582031 32.105469 107.964844 32.757812 109.070312 34.074219 C 110.175781 35.386719 110.730469 37.117188 110.730469 39.261719 Z M 107.550781 39.375 C 107.550781 38.003906 107.242188 36.875 106.625 35.984375 C 105.953125 35.058594 105.046875 34.59375 103.914062 34.59375 C 103.144531 34.59375 102.445312 34.851562 101.816406 35.363281 C 101.191406 35.875 100.785156 36.546875 100.59375 37.375 C 100.496094 37.761719 100.445312 38.078125 100.445312 38.328125 L 100.445312 40.675781 C 100.445312 41.699219 100.761719 42.5625 101.382812 43.269531 C 102.007812 43.972656 102.824219 44.328125 103.828125 44.328125 C 105.003906 44.328125 105.917969 43.871094 106.570312 42.96875 C 107.222656 42.058594 107.550781 40.863281 107.550781 39.375 Z M 128.78125 40.996094 C 128.78125 42.65625 128.199219 44.007812 127.050781 45.050781 C 125.785156 46.191406 124.015625 46.761719 121.746094 46.761719 C 119.652344 46.761719 117.972656 46.355469 116.707031 45.542969 L 117.429688 42.9375 C 118.796875 43.75 120.296875 44.15625 121.933594 44.15625 C 123.109375 44.15625 124.023438 43.886719 124.675781 43.359375 C 125.332031 42.828125 125.660156 42.117188 125.660156 41.230469 C 125.660156 40.4375 125.386719 39.773438 124.851562 39.230469 C 124.3125 38.691406 123.417969 38.1875 122.164062 37.726562 C 118.757812 36.453125 117.050781 34.585938 117.050781 32.132812 C 117.050781 30.53125 117.652344 29.222656 118.855469 28.195312 C 120.058594 27.171875 121.652344 26.660156 123.636719 26.660156 C 125.40625 26.660156 126.882812 26.96875 128.054688 27.585938 L 127.273438 30.136719 C 126.171875 29.539062 124.925781 29.238281 123.53125 29.238281 C 122.433594 29.238281 121.570312 29.511719 120.953125 30.050781 C 120.433594 30.53125 120.167969 31.121094 120.167969 31.820312 C 120.167969 32.589844 120.46875 33.230469 121.066406 33.730469 C 121.582031 34.191406 122.527344 34.695312 123.894531 35.234375 C 125.570312 35.914062 126.804688 36.703125 127.589844 37.609375 C 128.386719 38.515625 128.78125 39.648438 128.78125 40.996094 Z M 139.117188 34.742188 L 135.679688 34.742188 L 135.679688 41.578125 C 135.679688 43.316406 136.285156 44.183594 137.5 44.183594 C 138.058594 44.183594 138.519531 44.136719 138.886719 44.035156 L 138.972656 46.410156 C 138.359375 46.640625 137.546875 46.757812 136.546875 46.757812 C 135.316406 46.757812 134.351562 46.382812 133.65625 45.625 C 132.964844 44.871094 132.617188 43.609375 132.617188 41.832031 L 132.617188 34.734375 L 130.570312 34.734375 L 130.570312 32.386719 L 132.617188 32.386719 L 132.617188 29.8125 L 135.679688 28.882812 L 135.679688 32.386719 L 139.117188 32.386719 Z M 154.597656 39.316406 C 154.597656 41.480469 153.980469 43.257812 152.75 44.648438 C 151.460938 46.078125 149.746094 46.789062 147.609375 46.789062 C 145.546875 46.789062 143.90625 46.105469 142.683594 44.738281 C 141.460938 43.363281 140.847656 41.636719 140.847656 39.550781 C 140.847656 37.371094 141.480469 35.582031 142.742188 34.195312 C 144 32.804688 145.703125 32.109375 147.839844 32.109375 C 149.898438 32.109375 151.554688 32.792969 152.804688 34.164062 C 154 35.492188 154.597656 37.210938 154.597656 39.316406 Z M 151.363281 39.390625 C 151.363281 38.097656 151.085938 36.992188 150.527344 36.066406 C 149.875 34.949219 148.9375 34.390625 147.726562 34.390625 C 146.476562 34.390625 145.519531 34.949219 144.867188 36.066406 C 144.308594 36.992188 144.03125 38.117188 144.03125 39.449219 C 144.03125 40.738281 144.308594 41.847656 144.867188 42.769531 C 145.539062 43.886719 146.480469 44.449219 147.699219 44.449219 C 148.890625 44.449219 149.828125 43.875 150.503906 42.742188 C 151.074219 41.796875 151.363281 40.679688 151.363281 39.390625 Z M 164.738281 35.144531 C 164.414062 35.085938 164.085938 35.058594 163.753906 35.058594 C 162.65625 35.058594 161.808594 35.472656 161.214844 36.304688 C 160.695312 37.039062 160.433594 37.964844 160.433594 39.085938 L 160.433594 46.472656 L 157.316406 46.472656 L 157.316406 36.828125 C 157.320312 35.351562 157.289062 33.871094 157.226562 32.394531 L 159.941406 32.394531 L 160.054688 35.089844 L 160.140625 35.089844 C 160.472656 34.164062 160.992188 33.417969 161.703125 32.859375 C 162.351562 32.371094 163.144531 32.105469 163.957031 32.105469 C 164.242188 32.105469 164.503906 32.125 164.734375 32.160156 Z M 178.683594 38.765625 C 178.691406 39.242188 178.65625 39.71875 178.570312 40.1875 L 169.214844 40.1875 C 169.25 41.578125 169.703125 42.640625 170.574219 43.375 C 171.359375 44.027344 172.382812 44.359375 173.632812 44.359375 C 175.019531 44.359375 176.28125 44.136719 177.417969 43.691406 L 177.90625 45.863281 C 176.578125 46.445312 175.011719 46.734375 173.203125 46.734375 C 171.023438 46.734375 169.316406 46.089844 168.074219 44.808594 C 166.832031 43.523438 166.210938 41.800781 166.210938 39.636719 C 166.210938 37.515625 166.789062 35.75 167.945312 34.339844 C 169.15625 32.835938 170.792969 32.082031 172.855469 32.082031 C 174.875 32.082031 176.40625 32.835938 177.449219 34.339844 C 178.273438 35.53125 178.683594 37.011719 178.683594 38.765625 Z M 175.710938 37.957031 C 175.734375 37.027344 175.527344 36.226562 175.105469 35.550781 C 174.566406 34.679688 173.734375 34.246094 172.621094 34.246094 C 171.601562 34.246094 170.773438 34.667969 170.140625 35.519531 C 169.621094 36.195312 169.3125 37.007812 169.21875 37.953125 Z M 175.710938 37.957031 "/>
<path style=" stroke:none;fill-rule:nonzero;fill:rgb(100%,100%,100%);fill-opacity:1;" d="M 66.132812 20.046875 C 65.265625 20.046875 64.511719 20.003906 63.890625 19.929688 L 63.890625 10.492188 C 64.761719 10.355469 65.644531 10.289062 66.527344 10.292969 C 70.105469 10.292969 71.753906 12.058594 71.753906 14.933594 C 71.753906 18.253906 69.808594 20.046875 66.132812 20.046875 Z M 66.65625 11.503906 C 66.171875 11.503906 65.761719 11.53125 65.421875 11.601562 L 65.421875 18.777344 C 65.605469 18.808594 65.957031 18.820312 66.457031 18.820312 C 68.800781 18.820312 70.132812 17.480469 70.132812 14.976562 C 70.132812 12.742188 68.925781 11.503906 66.65625 11.503906 Z M 76.886719 20.117188 C 74.871094 20.117188 73.5625 18.609375 73.5625 16.558594 C 73.5625 14.421875 74.898438 12.898438 77 12.898438 C 78.984375 12.898438 80.320312 14.335938 80.320312 16.445312 C 80.320312 18.609375 78.945312 20.117188 76.886719 20.117188 Z M 76.945312 14.023438 C 75.835938 14.023438 75.128906 15.0625 75.128906 16.515625 C 75.128906 17.9375 75.851562 18.976562 76.929688 18.976562 C 78.007812 18.976562 78.730469 17.867188 78.730469 16.484375 C 78.730469 15.078125 78.023438 14.023438 76.945312 14.023438 Z M 91.816406 13.042969 L 89.660156 19.960938 L 88.253906 19.960938 L 87.359375 16.957031 C 87.136719 16.222656 86.953125 15.476562 86.804688 14.722656 L 86.773438 14.722656 C 86.664062 15.476562 86.449219 16.230469 86.222656 16.957031 L 85.273438 19.960938 L 83.851562 19.960938 L 81.820312 13.042969 L 83.394531 13.042969 L 84.175781 16.332031 C 84.363281 17.113281 84.515625 17.851562 84.644531 18.550781 L 84.675781 18.550781 C 84.789062 17.96875 84.972656 17.242188 85.242188 16.34375 L 86.222656 13.042969 L 87.472656 13.042969 L 88.410156 16.273438 C 88.636719 17.058594 88.820312 17.828125 88.964844 18.554688 L 89.003906 18.554688 C 89.105469 17.839844 89.261719 17.085938 89.472656 16.273438 L 90.3125 13.042969 Z M 99.757812 19.960938 L 98.226562 19.960938 L 98.226562 15.988281 C 98.226562 14.765625 97.757812 14.152344 96.835938 14.152344 C 95.925781 14.152344 95.300781 14.933594 95.300781 15.84375 L 95.300781 19.960938 L 93.769531 19.960938 L 93.769531 15.019531 C 93.769531 14.40625 93.753906 13.75 93.710938 13.039062 L 95.058594 13.039062 L 95.132812 14.109375 L 95.175781 14.109375 C 95.585938 13.367188 96.421875 12.898438 97.359375 12.898438 C 98.808594 12.898438 99.757812 14.011719 99.757812 15.816406 Z M 103.984375 19.960938 L 102.453125 19.960938 L 102.453125 9.867188 L 103.984375 9.867188 Z M 109.574219 20.117188 C 107.5625 20.117188 106.253906 18.609375 106.253906 16.558594 C 106.253906 14.421875 107.585938 12.898438 109.6875 12.898438 C 111.675781 12.898438 113.011719 14.335938 113.011719 16.445312 C 113.011719 18.609375 111.632812 20.117188 109.574219 20.117188 Z M 109.632812 14.023438 C 108.523438 14.023438 107.816406 15.0625 107.816406 16.515625 C 107.816406 17.9375 108.542969 18.976562 109.617188 18.976562 C 110.695312 18.976562 111.417969 17.867188 111.417969 16.484375 C 111.421875 15.078125 110.710938 14.023438 109.632812 14.023438 Z M 119.054688 19.960938 L 118.941406 19.164062 L 118.902344 19.164062 C 118.433594 19.804688 117.75 20.117188 116.882812 20.117188 C 115.648438 20.117188 114.769531 19.25 114.769531 18.082031 C 114.769531 16.375 116.246094 15.488281 118.800781 15.488281 L 118.800781 15.363281 C 118.800781 14.453125 118.320312 13.996094 117.371094 13.996094 C 116.691406 13.996094 116.09375 14.167969 115.566406 14.507812 L 115.257812 13.496094 C 115.894531 13.097656 116.691406 12.898438 117.625 12.898438 C 119.425781 12.898438 120.335938 13.851562 120.335938 15.761719 L 120.335938 18.308594 C 120.335938 19.007812 120.367188 19.550781 120.4375 19.960938 Z M 118.84375 16.515625 C 117.140625 16.515625 116.285156 16.929688 116.285156 17.910156 C 116.285156 18.636719 116.726562 18.992188 117.339844 18.992188 C 118.117188 18.992188 118.84375 18.394531 118.84375 17.582031 Z M 127.78125 19.960938 L 127.710938 18.851562 L 127.667969 18.851562 C 127.226562 19.6875 126.484375 20.117188 125.453125 20.117188 C 123.789062 20.117188 122.558594 18.648438 122.558594 16.585938 C 122.558594 14.421875 123.835938 12.898438 125.578125 12.898438 C 126.5 12.898438 127.152344 13.210938 127.523438 13.839844 L 127.554688 13.839844 L 127.554688 9.867188 L 129.089844 9.867188 L 129.089844 18.09375 C 129.089844 18.765625 129.105469 19.390625 129.144531 19.960938 Z M 127.554688 15.890625 C 127.554688 14.921875 126.914062 14.09375 125.9375 14.09375 C 124.800781 14.09375 124.109375 15.105469 124.109375 16.527344 C 124.109375 17.925781 124.828125 18.878906 125.910156 18.878906 C 126.871094 18.878906 127.554688 18.039062 127.554688 17.042969 Z M 138.816406 20.117188 C 136.804688 20.117188 135.496094 18.609375 135.496094 16.558594 C 135.496094 14.421875 136.832031 12.898438 138.929688 12.898438 C 140.917969 12.898438 142.253906 14.335938 142.253906 16.445312 C 142.253906 18.609375 140.878906 20.117188 138.816406 20.117188 Z M 138.875 14.023438 C 137.769531 14.023438 137.058594 15.0625 137.058594 16.515625 C 137.058594 17.9375 137.78125 18.976562 138.859375 18.976562 C 139.9375 18.976562 140.660156 17.867188 140.660156 16.484375 C 140.664062 15.078125 139.957031 14.023438 138.875 14.023438 Z M 150.496094 19.960938 L 148.960938 19.960938 L 148.960938 15.988281 C 148.960938 14.765625 148.496094 14.152344 147.570312 14.152344 C 146.664062 14.152344 146.039062 14.933594 146.039062 15.84375 L 146.039062 19.960938 L 144.503906 19.960938 L 144.503906 15.019531 C 144.503906 14.40625 144.492188 13.75 144.449219 13.039062 L 145.796875 13.039062 L 145.871094 14.109375 L 145.910156 14.109375 C 146.324219 13.367188 147.160156 12.898438 148.097656 12.898438 C 149.542969 12.898438 150.496094 14.007812 150.496094 15.816406 Z M 160.8125 14.195312 L 159.125 14.195312 L 159.125 17.554688 C 159.125 18.410156 159.421875 18.835938 160.015625 18.835938 C 160.289062 18.835938 160.515625 18.808594 160.695312 18.765625 L 160.738281 19.933594 C 160.441406 20.046875 160.042969 20.105469 159.550781 20.105469 C 158.34375 20.105469 157.621094 19.433594 157.621094 17.683594 L 157.621094 14.195312 L 156.613281 14.195312 L 156.613281 13.042969 L 157.621094 13.042969 L 157.621094 11.773438 L 159.125 11.316406 L 159.125 13.039062 L 160.8125 13.039062 Z M 168.925781 19.960938 L 167.394531 19.960938 L 167.394531 16.015625 C 167.394531 14.777344 166.929688 14.152344 166.003906 14.152344 C 165.210938 14.152344 164.46875 14.695312 164.46875 15.789062 L 164.46875 19.960938 L 162.9375 19.960938 L 162.9375 9.867188 L 164.46875 9.867188 L 164.46875 14.023438 L 164.5 14.023438 C 164.984375 13.269531 165.683594 12.898438 166.574219 12.898438 C 168.035156 12.898438 168.925781 14.035156 168.925781 15.84375 Z M 177.242188 16.871094 L 172.640625 16.871094 C 172.667969 18.179688 173.535156 18.921875 174.8125 18.921875 C 175.496094 18.921875 176.121094 18.804688 176.671875 18.59375 L 176.910156 19.660156 C 176.257812 19.945312 175.492188 20.085938 174.597656 20.085938 C 172.441406 20.085938 171.164062 18.71875 171.164062 16.601562 C 171.164062 14.480469 172.472656 12.882812 174.425781 12.882812 C 176.1875 12.882812 177.292969 14.195312 177.292969 16.171875 C 177.304688 16.40625 177.285156 16.640625 177.242188 16.871094 Z M 175.835938 15.773438 C 175.835938 14.707031 175.296875 13.953125 174.320312 13.953125 C 173.4375 13.953125 172.742188 14.722656 172.640625 15.773438 Z M 175.835938 15.773438 "/>
</g>
</svg>
