<svg width="61" height="59" viewBox="0 0 61 59" fill="none" xmlns="http://www.w3.org/2000/svg">
<path d="M57.8928 31.2203L19.1575 52.5383C17.034 53.707 14.3651 52.9329 13.1964 50.8094L1.39232 29.3612C0.223613 27.2376 0.997674 24.5687 3.12123 23.4L41.8565 2.08201C43.98 0.91331 46.649 1.68737 47.8177 3.81093L59.6217 25.2591C60.7904 27.3827 60.0163 30.0516 57.8928 31.2203Z" fill="#FEBC1F"/>
<path d="M57.0451 29.6829L18.3099 51.0009C16.1863 52.1696 13.5174 51.3956 12.3487 49.272L0.544663 27.8239C-0.624043 25.7003 0.150018 23.0314 2.27358 21.8627L41.0088 0.544661C43.1324 -0.624043 45.8013 0.15002 46.97 2.27358L58.7741 23.7217C59.9428 25.8453 59.1687 28.5142 57.0451 29.6829Z" fill="#FCD462"/>
<path d="M41.0088 0.544051L2.27358 21.8621C0.150013 23.0308 -0.624031 25.6997 0.544649 27.8233L12.3487 49.2715C12.3487 49.2715 1.34969 28.2365 44.9249 0.391559C43.7104 -0.154143 42.2651 -0.147382 41.0088 0.544051Z" fill="#F4B732"/>
<path d="M4.0158 30.4537L5.49807 33.147C5.87171 33.8259 6.72497 34.0734 7.40388 33.6997L48.2668 11.2107C48.9457 10.8371 49.1932 9.98385 48.8195 9.30494L47.3373 6.61164C46.9636 5.93273 46.1104 5.68526 45.4315 6.0589L4.56854 28.5479C3.88964 28.9215 3.64217 29.7748 4.0158 30.4537Z" fill="#1D2943"/>
<path d="M3.60186 29.7076L5.08413 32.4009C5.45777 33.0798 6.31103 33.3273 6.98994 32.9536L47.8528 10.4647C48.5318 10.091 48.7792 9.23776 48.4056 8.55885L46.9233 5.86554C46.5497 5.18663 45.6964 4.93916 45.0175 5.3128L4.1546 27.8018C3.4757 28.1754 3.22823 29.0287 3.60186 29.7076Z" fill="#4C5C75"/>
<path d="M50.89 58.1814L6.67601 58.1815C4.25209 58.1815 2.28712 56.2165 2.28712 53.7926L2.28711 29.3108C2.28711 26.8869 4.25208 24.9219 6.676 24.9219L50.89 24.9219C53.3139 24.9219 55.2789 26.8868 55.2789 29.3108L55.2789 53.7926C55.2789 56.2165 53.3139 58.1814 50.89 58.1814Z" fill="#006CB6"/>
<path d="M6.676 56.4275L50.89 56.4276C53.3139 56.4276 55.2789 54.4626 55.2789 52.0387L55.2789 27.5569C55.2789 25.133 53.3139 23.168 50.89 23.168L6.67601 23.168C4.25209 23.168 2.28712 25.1329 2.28712 27.5569L2.28711 52.0386C2.28711 54.4626 4.25208 56.4275 6.676 56.4275Z" fill="#1C8DDA"/>
<path d="M51.8426 48.5506V49.2318H51.8335C51.8513 50.153 51.0829 50.9268 50.1566 50.9268L45.7036 50.9268C44.7937 50.9268 44.0086 50.1672 44.0267 49.2318H44.0176V48.5507H44.1263C44.3893 47.889 45.1054 47.4357 45.8576 47.4357L50.0025 47.4357C50.7548 47.4357 51.4709 47.889 51.7339 48.5506H51.8426Z" fill="#E3E7F0"/>
<path d="M50.1522 50.2508L45.8476 50.2508C44.9803 50.2508 44.1607 49.662 44.039 48.8033C43.8907 47.7576 44.6994 46.8604 45.7166 46.8604L50.0042 46.8604C50.924 46.8603 51.7805 47.5277 51.8365 48.4457C51.8986 49.4648 51.0929 50.2508 50.1522 50.2508Z" fill="white"/>
<path d="M39.0809 48.5505V49.2316H39.0718C39.0896 50.1528 38.3212 50.9266 37.3949 50.9266L32.9418 50.9266C32.032 50.9266 31.2469 50.167 31.2649 49.2316H31.2559V48.5505H31.3646C31.6275 47.8888 32.3437 47.4356 33.0959 47.4356L37.2408 47.4355C37.9931 47.4355 38.7092 47.8888 38.9721 48.5505H39.0809Z" fill="#E3E7F0"/>
<path d="M37.3886 50.2508L33.084 50.2508C32.2167 50.2508 31.3972 49.662 31.2754 48.8033C31.1271 47.7576 31.9359 46.8604 32.953 46.8604L37.2407 46.8604C38.1604 46.8603 39.0169 47.5277 39.0729 48.4457C39.1351 49.4648 38.3293 50.2508 37.3886 50.2508Z" fill="white"/>
<path d="M26.3134 48.5505V49.2317H26.3044C26.3221 50.1528 25.5537 50.9266 24.6275 50.9266H20.1744C19.2645 50.9266 18.4795 50.1671 18.4975 49.2317H18.4884V48.5505H18.5972C18.8601 47.8888 19.5762 47.4356 20.3284 47.4356H24.4733C25.2256 47.4356 25.9418 47.8888 26.2047 48.5505H26.3134Z" fill="#E3E7F0"/>
<path d="M24.623 50.2509L20.3184 50.251C19.4511 50.251 18.6315 49.6621 18.5098 48.8034C18.3615 47.7577 19.1703 46.8605 20.1874 46.8605L24.4751 46.8605C25.3948 46.8605 26.2513 47.5279 26.3073 48.4459C26.3694 49.4649 25.5637 50.2509 24.623 50.2509Z" fill="white"/>
<path d="M13.5497 48.5514V49.2325H13.5406C13.5583 50.1537 12.7899 50.9275 11.8637 50.9275L7.4106 50.9275C6.50075 50.9275 5.71567 50.168 5.73368 49.2325H5.72461V48.5514H5.83338C6.09628 47.8897 6.81242 47.4365 7.56462 47.4365L11.7095 47.4365C12.4618 47.4365 13.178 47.8897 13.4409 48.5514H13.5497Z" fill="#E3E7F0"/>
<path d="M11.8592 50.2517L7.55461 50.2517C6.68732 50.2518 5.86773 49.6629 5.74598 48.8042C5.59773 47.7585 6.40646 46.8613 7.42359 46.8613L11.7113 46.8613C12.631 46.8613 13.4875 47.5287 13.5435 48.4467C13.6057 49.4657 12.7999 50.2517 11.8592 50.2517Z" fill="white"/>
<path d="M5.72852 30.9005L5.72852 34.9958C5.72852 36.0282 6.56538 36.865 7.59771 36.865L15.2662 36.865C16.2985 36.865 17.1354 36.0281 17.1354 34.9958L17.1354 30.9004C17.1354 29.8681 16.2985 29.0312 15.2662 29.0312L7.59771 29.0313C6.56538 29.0313 5.72852 29.8681 5.72852 30.9005Z" fill="#FEBC1F"/>
<path d="M5.72852 30.2628L5.72852 34.3581C5.72852 35.3905 6.56538 36.2273 7.59771 36.2273L15.2662 36.2273C16.2985 36.2273 17.1354 35.3904 17.1354 34.3581V30.2627C17.1354 29.2304 16.2985 28.3936 15.2662 28.3936L7.59771 28.3936C6.56538 28.3936 5.72851 29.2304 5.72852 30.2628Z" fill="#FFD475"/>
<path d="M11.2333 31.8686V28.3936H10.3454V31.8686H5.72852V32.7564H8.25444V36.2273H9.14228V32.7564H13.1399V36.2273H14.0277V32.7564H17.1354V31.8686H11.2333Z" fill="#FEBC1F"/>
<path d="M51.0279 34.934L46.0292 34.9341C45.6127 34.9341 45.2191 34.6513 45.1607 34.2389C45.0895 33.7367 45.4779 33.3059 45.9663 33.3059L50.9568 33.3058C51.3985 33.3058 51.8098 33.6264 51.8367 34.0672C51.8666 34.5566 51.4796 34.934 51.0279 34.934Z" fill="white"/>
<path d="M51.0278 31.4487L42.2519 31.4487C41.8354 31.4487 41.4418 31.1659 41.3833 30.7535C41.3121 30.2514 41.7005 29.8205 42.189 29.8205L50.9568 29.8205C51.3984 29.8205 51.8098 30.141 51.8367 30.5819C51.8665 31.0712 51.4796 31.4487 51.0278 31.4487Z" fill="white"/>
</svg>
