<svg width="50" height="53" viewBox="0 0 50 53" fill="none" xmlns="http://www.w3.org/2000/svg">
<path d="M30.5542 0H8.73769C7.68629 0 6.83203 0.85426 6.83203 1.90566V21.0937C6.83203 22.1451 7.68629 22.9993 8.73769 22.9993H30.5542C31.6056 22.9993 32.4598 22.1451 32.4598 21.0937V1.90566C32.4598 0.85426 31.6056 0 30.5542 0Z" fill="#EBF0F3"/>
<path d="M26.152 3.28516H13.141C13.141 5.19081 11.5639 6.76791 9.6582 6.76791V20.8961H29.569V6.76791C27.6634 6.76791 26.152 5.19081 26.152 3.28516Z" fill="#006CB6"/>
<path d="M19.645 13.7997C21.4596 13.7997 22.9306 12.3287 22.9306 10.5141C22.9306 8.69954 21.4596 7.22852 19.645 7.22852C17.8304 7.22852 16.3594 8.69954 16.3594 10.5141C16.3594 12.3287 17.8304 13.7997 19.645 13.7997Z" fill="#EBF0F3"/>
<path d="M44.7498 14.7852H6.96523C4.53387 14.7852 2.5625 16.7565 2.5625 19.1879V48.5613C2.5625 50.9926 4.53387 52.964 6.96523 52.964H44.7498C47.1812 52.964 49.1525 50.9926 49.1525 48.5613V19.1879C49.1525 16.7565 47.1812 14.7852 44.7498 14.7852Z" fill="#F6C358"/>
<path d="M42.1873 14.7853H4.40273C1.97137 14.7853 0 16.7566 0 19.188V48.5614C0 50.9928 1.97137 52.9641 4.40273 52.9641H42.1873C44.6187 52.9641 46.59 50.9928 46.59 48.5614V19.188C46.59 16.7566 44.6187 14.7853 42.1873 14.7853Z" fill="#FCD462"/>
<path d="M40.0841 50.2699H36.5357C36.2728 50.2699 36.01 50.007 36.01 49.7442C36.01 49.4813 36.2728 49.2185 36.5357 49.2185H40.0841C40.347 49.2185 40.6098 49.4813 40.6098 49.7442C40.6098 50.007 40.4127 50.2699 40.0841 50.2699ZM33.0529 50.2699H29.5044C29.2416 50.2699 28.9787 50.007 28.9787 49.7442C28.9787 49.4813 29.2416 49.2185 29.5044 49.2185H33.0529C33.3158 49.2185 33.5786 49.4813 33.5786 49.7442C33.5786 50.007 33.3815 50.2699 33.0529 50.2699ZM26.0217 50.2699H22.4732C22.2104 50.2699 21.9475 50.007 21.9475 49.7442C21.9475 49.4813 22.2104 49.2185 22.4732 49.2185H26.0217C26.2845 49.2185 26.5474 49.4813 26.5474 49.7442C26.5474 50.007 26.3503 50.2699 26.0217 50.2699ZM18.9905 50.2699H15.442C15.1792 50.2699 14.9163 50.007 14.9163 49.7442C14.9163 49.4813 15.1792 49.2185 15.442 49.2185H18.9905C19.2533 49.2185 19.5162 49.4813 19.5162 49.7442C19.5162 50.007 19.319 50.2699 18.9905 50.2699ZM11.9592 50.2699H8.41078C8.14793 50.2699 7.88508 50.007 7.88508 49.7442C7.88508 49.4813 8.14793 49.2185 8.41078 49.2185H11.9592C12.2221 49.2185 12.4849 49.4813 12.4849 49.7442C12.4849 50.007 12.2878 50.2699 11.9592 50.2699ZM4.92803 50.2699C3.74521 50.2699 2.75952 49.3499 2.75952 48.1671V47.1814C2.75952 46.9186 3.02237 46.6557 3.28522 46.6557C3.54807 46.6557 3.81092 46.9186 3.81092 47.1814V48.1671C3.81092 48.7585 4.2709 49.2185 4.92803 49.2185C5.19088 49.2185 5.45373 49.4813 5.45373 49.7442C5.45373 50.007 5.25659 50.2699 4.92803 50.2699ZM43.1726 49.2185C43.1069 49.2185 43.0412 49.2185 42.9755 49.1528C42.7126 49.0214 42.5812 48.7585 42.6469 48.4957C42.7126 48.3642 42.7126 48.2328 42.7126 48.1671V45.21C42.7126 44.9472 42.9755 44.6843 43.2383 44.6843C43.5012 44.6843 43.764 44.9472 43.764 45.21V48.1671C43.764 48.4299 43.6983 48.6928 43.6326 48.8899C43.6326 49.0871 43.4355 49.2185 43.1726 49.2185ZM3.28522 44.1586C3.02237 44.1586 2.75952 43.8958 2.75952 43.6329V40.0845C2.75952 39.8216 3.02237 39.5588 3.28522 39.5588C3.54807 39.5588 3.81092 39.8216 3.81092 40.0845V43.6329C3.81092 43.8958 3.61378 44.1586 3.28522 44.1586ZM43.304 42.1873C43.0412 42.1873 42.7783 41.9244 42.7783 41.6616V38.1131C42.7783 37.8503 43.0412 37.5874 43.304 37.5874C43.5669 37.5874 43.8297 37.8503 43.8297 38.1131V41.6616C43.8297 41.9901 43.5669 42.1873 43.304 42.1873ZM3.28522 37.1274C3.02237 37.1274 2.75952 36.8646 2.75952 36.6017V33.0533C2.75952 32.7904 3.02237 32.5276 3.28522 32.5276C3.54807 32.5276 3.81092 32.7904 3.81092 33.0533V36.6017C3.81092 36.8646 3.61378 37.1274 3.28522 37.1274ZM43.304 35.156C43.0412 35.156 42.7783 34.8932 42.7783 34.6304V31.0819C42.7783 30.819 43.0412 30.5562 43.304 30.5562C43.5669 30.5562 43.8297 30.819 43.8297 31.0819V34.6304C43.8297 34.9589 43.5669 35.156 43.304 35.156ZM3.28522 30.0962C3.02237 30.0962 2.75952 29.8333 2.75952 29.5705V26.022C2.75952 25.7592 3.02237 25.4963 3.28522 25.4963C3.54807 25.4963 3.81092 25.7592 3.81092 26.022V29.5705C3.81092 29.8333 3.61378 30.0962 3.28522 30.0962ZM43.304 28.1248C43.0412 28.1248 42.7783 27.862 42.7783 27.5991V24.0507C42.7783 23.7878 43.0412 23.525 43.304 23.525C43.5669 23.525 43.8297 23.7878 43.8297 24.0507V27.5991C43.8297 27.9277 43.5669 28.1248 43.304 28.1248ZM3.28522 23.065C3.02237 23.065 2.75952 22.8021 2.75952 22.5393V19.5822C2.75952 19.3194 2.82523 19.0565 2.89095 18.8594C3.02237 18.5965 3.28522 18.4651 3.54807 18.5308C3.81092 18.6623 3.94234 18.9251 3.87663 19.188C3.81092 19.3194 3.81092 19.4508 3.81092 19.5822V22.5393C3.81092 22.8021 3.61378 23.065 3.28522 23.065ZM43.304 21.0936C43.0412 21.0936 42.7783 20.8308 42.7783 20.5679V19.5822C42.7783 18.9908 42.3184 18.5308 41.6612 18.5308C41.3984 18.5308 41.1355 18.268 41.1355 18.0051C41.1355 17.7423 41.3327 17.4794 41.6612 17.4794C42.844 17.4794 43.764 18.3994 43.764 19.5822V20.5679C43.8297 20.8965 43.5669 21.0936 43.304 21.0936ZM38.1785 18.5308H34.63C34.3672 18.5308 34.1043 18.268 34.1043 18.0051C34.1043 17.7423 34.3672 17.4794 34.63 17.4794H38.1785C38.4413 17.4794 38.7042 17.7423 38.7042 18.0051C38.7042 18.268 38.4413 18.5308 38.1785 18.5308ZM31.1473 18.5308H27.5988C27.3359 18.5308 27.0731 18.268 27.0731 18.0051C27.0731 17.7423 27.3359 17.4794 27.5988 17.4794H31.1473C31.4101 17.4794 31.673 17.7423 31.673 18.0051C31.673 18.268 31.4101 18.5308 31.1473 18.5308ZM24.116 18.5308H20.5676C20.3047 18.5308 20.0419 18.268 20.0419 18.0051C20.0419 17.7423 20.3047 17.4794 20.5676 17.4794H24.116C24.3789 17.4794 24.6417 17.7423 24.6417 18.0051C24.576 18.268 24.3789 18.5308 24.116 18.5308ZM17.0848 18.5308H13.5363C13.2735 18.5308 13.0106 18.268 13.0106 18.0051C13.0106 17.7423 13.2735 17.4794 13.5363 17.4794H17.0848C17.3477 17.4794 17.6105 17.7423 17.6105 18.0051C17.5448 18.268 17.3477 18.5308 17.0848 18.5308ZM9.98788 18.5308H6.43941C6.17656 18.5308 5.91371 18.268 5.91371 18.0051C5.91371 17.7423 6.17656 17.4794 6.43941 17.4794H9.98788C10.2507 17.4794 10.5136 17.7423 10.5136 18.0051C10.5136 18.268 10.3164 18.5308 9.98788 18.5308Z" fill="#EBF0F3"/>
<path d="M32.8561 27.7961C29.5048 27.7961 26.8105 30.4903 26.8105 33.8417C26.8105 37.193 29.5048 39.8872 32.8561 39.8872H49.1527V27.7961H32.8561Z" fill="#3A556A"/>
<path d="M46.59 27.7961H32.8561C29.5048 27.7961 26.8105 30.4903 26.8105 33.8417C26.8105 37.193 29.5048 39.8872 32.8561 39.8872H46.59V27.7961Z" fill="#64798A"/>
<path d="M32.6585 36.4049C34.0739 36.4049 35.2213 35.2575 35.2213 33.8421C35.2213 32.4267 34.0739 31.2793 32.6585 31.2793C31.2431 31.2793 30.0957 32.4267 30.0957 33.8421C30.0957 35.2575 31.2431 36.4049 32.6585 36.4049Z" fill="#EBF0F3"/>
</svg>
