<svg width="84" height="93" viewBox="0 0 84 93" fill="none" xmlns="http://www.w3.org/2000/svg">
<path d="M51.2205 5.20886H3.7124V79.2182H51.2205V5.20886Z" fill="#D5E9F6"/>
<path d="M51.2204 5.20886H27.8223V79.2182H51.2204V5.20886Z" fill="#D5E9F6"/>
<path d="M47.572 0.938232H8.07839C3.65622 0.938232 0.0714111 4.52304 0.0714111 8.94521V84.3561C0.0714111 88.5996 3.51156 92.0398 7.75508 92.0398H47.8955C52.139 92.0398 55.5791 88.5996 55.5791 84.3561V8.94521C55.579 4.52304 51.9942 0.938232 47.572 0.938232ZM50.241 71.221C50.241 73.8704 48.0633 76.0257 45.3864 76.0257H10.2565C7.66807 76.0257 5.54658 74.0102 5.40939 71.4815V8.94521C5.40939 7.47121 6.60439 6.27622 8.07839 6.27622H10.9666C11.5212 6.27622 12.0134 6.60824 12.2468 7.11125C13.4589 9.72348 16.1055 11.54 19.1695 11.54H36.4736C39.5378 11.54 42.1844 9.72348 43.3963 7.11125C43.6297 6.60824 44.1219 6.27622 44.6765 6.27622H47.572C49.046 6.27622 50.241 7.47121 50.241 8.94521V71.221Z" fill="#006CB6"/>
<path d="M47.5708 0.938477H27.8202V11.5402H36.4722C39.5364 11.5402 42.183 9.72373 43.3949 7.1115C43.6283 6.60848 44.1205 6.27646 44.6751 6.27646H47.5706C49.0446 6.27646 50.2396 7.47146 50.2396 8.94545V71.2212C50.2396 73.8706 48.0619 76.0259 45.3851 76.0259H27.8201V92.04H47.8939C52.1374 92.04 55.5776 88.6001 55.5776 84.3564V8.94545C55.5778 4.52329 51.9929 0.938477 47.5708 0.938477Z" fill="#006CB6"/>
<path fill-rule="evenodd" clip-rule="evenodd" d="M27.8245 86.7021C29.2946 86.7021 30.4935 85.503 30.4935 84.0331C30.4935 82.563 29.2946 81.3641 27.8245 81.3641C26.3544 81.3641 25.1555 82.563 25.1555 84.0331C25.1555 85.503 26.3544 86.7021 27.8245 86.7021Z" fill="#E8F6FC"/>
<path d="M77.8214 65.8839H24.6195C21.6761 65.8839 19.2815 63.4893 19.2815 60.5459V27.0946C19.2815 24.1512 21.6761 21.7566 24.6195 21.7566H77.8214C80.7647 21.7566 83.1594 24.1512 83.1594 27.0946V60.5459C83.1594 63.4893 80.7647 65.8839 77.8214 65.8839Z" fill="#F4B732"/>
<path d="M77.8214 21.7566H51.2205V65.8839H77.8214C80.7648 65.8839 83.1594 63.4893 83.1594 60.5459V27.0946C83.1594 24.1512 80.7648 21.7566 77.8214 21.7566Z" fill="#FAE1AC"/>
<path fill-rule="evenodd" clip-rule="evenodd" d="M27.826 81.3641C27.8248 81.3641 27.8235 81.3643 27.8223 81.3643V86.7021C27.8235 86.7021 27.8248 86.7022 27.826 86.7022C29.2961 86.7022 30.495 85.5031 30.495 84.0332C30.495 82.5632 29.2961 81.3641 27.826 81.3641Z" fill="#E8F6FC"/>
<path d="M34.05 42.2188H32.6265C31.1525 42.2188 29.9575 41.0238 29.9575 39.5499C29.9575 38.0759 31.1525 36.8809 32.6265 36.8809H34.05C35.524 36.8809 36.719 38.0759 36.719 39.5499C36.719 41.0238 35.524 42.2188 34.05 42.2188Z" fill="#E8F6FC"/>
<path d="M58.6047 55.5638H32.6265C31.1525 55.5638 29.9575 54.3688 29.9575 52.8948C29.9575 51.4208 31.1525 50.2258 32.6265 50.2258H58.6047C60.0787 50.2258 61.2737 51.4208 61.2737 52.8948C61.2737 54.3688 60.0787 55.5638 58.6047 55.5638Z" fill="#E8F6FC"/>
<path d="M58.6047 50.2258H51.2205V55.5638H58.6047C60.0787 55.5638 61.2737 54.3688 61.2737 52.8948C61.2737 51.4208 60.0787 50.2258 58.6047 50.2258Z" fill="#E8F6FC"/>
<path d="M46.1493 42.2188H44.7259C43.2519 42.2188 42.0569 41.0238 42.0569 39.5499C42.0569 38.0759 43.2519 36.8809 44.7259 36.8809H46.1493C47.6233 36.8809 48.8183 38.0759 48.8183 39.5499C48.8183 41.0238 47.6233 42.2188 46.1493 42.2188Z" fill="#E8F6FC"/>
<path d="M58.2488 42.2188H56.8254C55.3514 42.2188 54.1564 41.0238 54.1564 39.5499C54.1564 38.0759 55.3514 36.8809 56.8254 36.8809H58.2488C59.7228 36.8809 60.9178 38.0759 60.9178 39.5499C60.9178 41.0238 59.7228 42.2188 58.2488 42.2188Z" fill="#FDFDFD"/>
<path d="M70.3483 42.2188H68.9249C67.4509 42.2188 66.2559 41.0238 66.2559 39.5499C66.2559 38.0759 67.4509 36.8809 68.9249 36.8809H70.3483C71.8223 36.8809 73.0173 38.0759 73.0173 39.5499C73.0173 41.0238 71.8223 42.2188 70.3483 42.2188Z" fill="#FDFDFD"/>
</svg>
