<svg width="69" height="48" viewBox="0 0 69 48" fill="none" xmlns="http://www.w3.org/2000/svg">
<path d="M67.8568 27.1148C66.1687 24.2675 63.7639 21.8816 60.9035 20.2156C57.953 18.4981 54.58 17.5898 51.1486 17.5898C47.7171 17.5898 44.3441 18.4981 41.3937 20.2156C38.5332 21.8816 36.1289 24.2675 34.4403 27.1148C32.9759 29.5859 32.9538 32.5569 34.3819 35.0632C35.8242 37.5959 38.4221 39.1071 41.3305 39.1071H60.9666C63.8755 39.1071 66.4729 37.5953 67.9157 35.0632C69.3433 32.5569 69.3212 29.5859 67.8568 27.1148Z" fill="#19CFFC"/>
<path d="M60.9058 20.2132C57.9559 18.4952 54.5823 17.5869 51.1509 17.5869C51.1509 17.5869 51.1509 17.5869 51.1504 17.5869V39.1047H60.969C63.8779 39.1047 66.4752 37.5929 67.9176 35.0608C69.3457 32.5545 69.3236 29.5829 67.8592 27.1124C66.1711 24.2645 63.7663 21.8787 60.9058 20.2132Z" fill="#4AB8F7"/>
<path d="M58.8575 3.19305C56.7984 1.13398 54.0611 0 51.149 0C48.237 0 45.4996 1.13398 43.4411 3.19305C41.382 5.25211 40.248 7.98946 40.248 10.901C40.248 13.813 41.382 16.5504 43.4411 18.6094C45.4996 20.6685 48.237 21.8025 51.149 21.8025C54.0611 21.8025 56.7984 20.6685 58.8575 18.6094C60.9166 16.5504 62.0505 13.813 62.0505 10.901C62.0505 7.98946 60.9166 5.25211 58.8575 3.19305Z" fill="#FFD2BF"/>
<path d="M58.8594 3.19072C56.734 1.06535 53.9425 0.00292969 51.1504 0.00292969V21.7949H51.1509C53.9425 21.7949 56.734 20.7325 58.8594 18.6071C63.1096 14.3569 63.1096 7.44092 58.8594 3.19072Z" fill="#FFB89C"/>
<path d="M34.5306 27.1138C32.8425 24.2665 30.4378 21.8806 27.5773 20.2147C24.6273 18.4971 21.2538 17.5889 17.8224 17.5889C14.391 17.5889 11.0179 18.4971 8.06748 20.2147C5.207 21.8806 2.80274 24.2665 1.11413 27.1138C-0.350312 29.5844 -0.372413 32.5559 1.05572 35.0622C2.49807 37.5944 5.09597 39.1062 8.00434 39.1062H27.641C30.5493 39.1062 33.1467 37.5949 34.5896 35.0622C36.0172 32.5564 35.9951 29.5849 34.5306 27.1138Z" fill="#27488F"/>
<path d="M27.5796 20.2132C24.6297 18.4952 21.2562 17.5869 17.8247 17.5869C17.8247 17.5869 17.8247 17.5869 17.8242 17.5869V39.1047H27.6428C30.5517 39.1047 33.1491 37.5929 34.5914 35.0608C36.0195 32.5545 35.9974 29.5829 34.533 27.1124C32.8449 24.2645 30.4401 21.8787 27.5796 20.2132Z" fill="#12254C"/>
<path d="M25.5313 3.19305C23.4723 1.13398 20.7349 0 17.8229 0C14.9113 0 12.1735 1.13398 10.1149 3.19305C8.05586 5.25211 6.92188 7.98946 6.92188 10.901C6.92188 13.813 8.05586 16.5504 10.1149 18.6094C12.1735 20.6685 14.9113 21.8025 17.8229 21.8025C20.7349 21.8025 23.4723 20.6685 25.5313 18.6094C27.5904 16.5504 28.7244 13.813 28.7244 10.901C28.7244 7.98946 27.5904 5.25211 25.5313 3.19305Z" fill="#FFD2BF"/>
<path d="M25.5332 3.19072C23.4078 1.06535 20.6163 0.00292969 17.8242 0.00292969V21.7949H17.8247C20.6163 21.7949 23.4078 20.7325 25.5332 18.6071C29.7834 14.3569 29.7834 7.44092 25.5332 3.19072Z" fill="#FFB89C"/>
<path d="M51.1942 35.7671C49.5061 32.9193 47.1018 30.5334 44.2413 28.868C41.2909 27.1499 37.9179 26.2422 34.4864 26.2422C31.055 26.2422 27.6815 27.1499 24.7315 28.868C21.8711 30.5334 19.4663 32.9193 17.7782 35.7671C16.3138 38.2377 16.2916 41.2092 17.7198 43.7155C19.1621 46.2477 21.7595 47.7595 24.6684 47.7595H44.3045C47.2129 47.7595 49.8108 46.2477 51.2531 43.7155C52.6807 41.2092 52.6591 38.2377 51.1942 35.7671Z" fill="#F4B732"/>
<path d="M44.2418 28.8675C41.2913 27.1495 37.9183 26.2412 34.4869 26.2412H34.4863V47.759H44.3049C47.2133 47.759 49.8112 46.2472 51.2535 43.7151C52.6811 41.2088 52.6596 38.2372 51.1946 35.7667C49.5065 32.9188 47.1022 30.533 44.2418 28.8675Z" fill="#D89B1A"/>
<path d="M42.1944 11.8459C37.9437 7.59565 31.0282 7.59565 26.7775 11.8459C22.5273 16.0961 22.5273 23.0121 26.7775 27.2623C28.9029 29.3876 31.6944 30.45 34.486 30.45C37.2775 30.45 40.0691 29.3876 42.1944 27.2623C46.4446 23.0121 46.4446 16.0961 42.1944 11.8459Z" fill="#FFD2BF"/>
<path d="M42.1953 11.845C40.07 9.71965 37.2779 8.65723 34.4863 8.65723V30.4492H34.4869C37.2784 30.4492 40.07 29.3868 42.1953 27.2614C46.4455 23.0112 46.4455 16.0952 42.1953 11.845Z" fill="#FFB89C"/>
</svg>
