<svg width="37" height="37" viewBox="0 0 37 37" fill="none" xmlns="http://www.w3.org/2000/svg">
<path d="M32.6634 18.4049C32.6634 23.4874 31.5083 28.3388 29.1403 32.8437C29.0248 33.0747 28.9093 33.248 28.7938 33.479C28.4473 34.0566 27.9275 34.4031 27.2921 33.9988C26.6568 33.5945 26.6568 33.017 26.9456 32.4394C27.1189 32.0351 27.3499 31.6886 27.5232 31.2843C29.4291 27.4147 30.4687 23.3141 30.5264 19.8488C30.5264 12.5716 26.1948 7.66242 20.3038 6.68059C12.2758 5.35222 8.86823 11.8208 8.63721 12.1673L8.23293 12.8026C7.25109 12.8026 6.32701 12.9759 5.51843 13.3802L6.21149 11.8786C8.05966 8.23998 11.4672 5.52548 15.5678 4.65915C24.2889 2.75323 32.6056 9.39508 32.6634 18.4049Z" fill="#FFF8E9"/>
<path d="M28.273 19.3306C28.042 25.2217 26.136 30.4774 22.4975 35.1556C22.2664 35.5021 21.9777 35.7909 21.6889 36.1374C21.2268 36.715 20.6493 37.0037 20.014 36.4262C19.3787 35.8486 19.5519 35.2711 20.0717 34.6935C21.5156 32.9609 22.7862 31.1127 23.7681 29.0913C25.3275 25.857 26.136 22.3917 26.136 18.8108C26.1938 14.4214 22.9017 10.9561 18.6856 10.9561C18.5123 10.9561 18.3391 10.9561 18.1081 10.9561C15.7979 11.0716 13.7187 12.4 12.4481 14.3059C11.8705 13.8439 11.2352 13.4974 10.4844 13.2663L10.5421 13.1508C11.1774 12.169 11.9283 11.2449 12.9101 10.5518C14.585 9.33898 16.6064 8.70368 18.8589 8.76143C24.4611 8.87694 28.504 13.4396 28.273 19.3306Z" fill="#FFF8E9"/>
<path d="M23.9992 19.2146C23.7104 24.6436 21.8623 29.264 18.5125 33.1914L17.3574 34.4043V31.0545L18.5125 29.5528C20.5917 26.434 21.689 22.7955 21.8045 18.7526C21.8623 16.6157 20.5339 15.1718 18.6857 15.1718H18.628C17.1841 15.1718 15.9712 16.2691 15.6247 17.6553L15.2204 19.3879C15.1049 18.0595 14.7006 16.8467 14.0076 15.8071L14.0653 15.6916C14.7584 14.421 15.9135 13.4391 17.2996 13.1503H17.3574C19.6676 12.5728 22.0355 13.6124 23.2484 15.6916C23.9415 16.7889 24.1147 17.944 23.9992 19.2146Z" fill="#FFF8E9"/>
<path d="M19.7275 18.8675C19.5542 21.1777 19.1499 23.2569 18.3991 25.2205L17.3018 27.1265V26.2601C17.3018 25.3938 16.9552 24.643 16.3777 24.1232L16.782 22.9681C17.1285 21.7552 17.3595 20.4268 17.4173 19.0985C17.4173 19.0407 17.4173 18.983 17.4173 18.983C17.4173 18.1744 17.5328 17.3658 18.5724 17.4236C19.6697 17.4236 19.7275 18.2321 19.7275 18.8675Z" fill="#FFF8E9"/>
<path d="M14.1243 19.9068V23.3144H11.4098V19.9068C11.4098 18.1164 9.96588 16.6147 8.17547 16.6147C6.38506 16.6147 4.94118 18.1164 4.94118 19.9068V20.7731C4.94118 21.5239 4.36363 22.1015 3.61281 22.1015C3.26628 22.1015 2.91975 21.9282 2.63097 21.6972C2.39995 21.4662 2.22668 21.1197 2.22668 20.7731V19.9068C2.28444 16.6147 4.94118 13.958 8.17547 13.958C11.4675 13.958 14.1243 16.6147 14.1243 19.9068Z" fill="#FFF8E9"/>
<path d="M14.3539 24.5273H1.99427C1.01243 24.5273 0.203857 25.3359 0.203857 26.3178V34.9233C0.203857 35.9051 1.01243 36.7137 1.99427 36.7137H14.3539C15.3357 36.7137 16.1443 35.9051 16.1443 34.9233V26.3178C16.1443 25.3359 15.3357 24.5273 14.3539 24.5273ZM9.5602 32.7286C9.61796 33.0174 9.44469 33.2484 9.15591 33.2484H7.30775C7.01897 33.2484 6.84571 33.0174 6.90346 32.7286L7.19224 31.4002C7.24999 31.2847 7.19224 31.1114 7.07673 30.9959C6.67244 30.6494 6.44142 30.0718 6.49918 29.4365C6.61469 28.6857 7.24999 28.0504 8.00081 27.9927C9.09816 27.8194 10.0222 28.6857 10.0222 29.7253C10.0222 30.2451 9.79122 30.7072 9.44469 31.0537C9.32918 31.1692 9.27143 31.2847 9.32918 31.458L9.5602 32.7286Z" fill="#FFF8E9"/>
<path d="M35.8983 19.4444C35.0897 19.4444 34.8587 18.8091 34.7432 18.116C34.6277 17.1919 34.6277 16.2678 34.4544 15.3438C32.9528 7.37354 25.6756 1.71353 17.6476 2.23333C12.6229 2.5221 8.17577 5.12109 5.40352 8.99068C4.76821 9.85701 4.24842 10.7811 3.84413 11.7629C3.38209 12.8603 3.03556 14.0154 2.80454 15.1705C1.76494 16.4411 1.12963 18.116 1.12963 19.9064V20.7727C1.12963 20.946 1.12963 21.1193 1.18739 21.2925C1.07188 21.2925 1.01412 21.2925 0.898614 21.2925C0.0900411 21.177 -0.0832246 20.484 0.0322858 19.7909C0.205551 18.5203 0.205551 18.0583 0.263307 17.5962C0.436572 13.6689 1.76494 10.088 4.24842 6.96925C8.98434 1.07822 16.5503 -1.40525 23.7697 0.789445C31.2779 3.09965 35.5517 8.41313 36.8224 16.0946C36.8801 16.5566 36.8801 17.885 36.8801 18.0583C36.9956 18.8668 36.7646 19.4444 35.8983 19.4444Z" fill="#FFF8E9"/>
</svg>
