<svg width="17" height="17" viewBox="0 0 17 17" fill="none" xmlns="http://www.w3.org/2000/svg">
<g clip-path="url(#clip0_1_4345)">
<path d="M3.27603 9.00414C4.3678 9.00414 5.32937 8.46566 5.92304 7.64102C6.49511 8.46392 7.44425 9.00414 8.52081 9.00414C9.59457 9.00414 10.543 8.46672 11.1156 7.64741C11.7058 8.4681 12.6676 9.00414 13.7537 9.00414C15.837 9.00414 17.4127 6.98526 16.9037 4.96446L15.9105 1.02118C15.7596 0.422064 15.2222 0.00366211 14.6039 0.00366211H2.38865C1.77032 0.00366211 1.23308 0.422064 1.08217 1.02122L0.0953373 4.941C-0.186211 6.05885 0.183861 7.03298 0.837444 7.91985V15.6508C0.837444 16.393 1.43667 16.9968 2.17954 16.9968H14.818C15.5608 16.9968 16.1603 16.3929 16.1603 15.6508V10.637C16.1603 10.3118 15.8867 10.0482 15.5612 10.0482C15.2357 10.0482 14.9621 10.3118 14.9621 10.637V15.6508C14.9621 15.7436 14.9108 15.8349 14.818 15.8349H11.1132V11.2357C11.1132 10.9105 10.8489 10.6425 10.5234 10.6425H6.47448C6.14896 10.6425 5.88459 10.9105 5.88459 11.2357V15.8349H2.17954C2.08669 15.8349 2.03568 15.7436 2.03568 15.6508V8.75687C2.39878 8.91845 2.83802 9.00414 3.27603 9.00414ZM11.6942 1.16559H14.6038C14.6812 1.16559 14.7483 1.22579 14.7672 1.30066L15.7602 5.24782C16.0831 6.53008 15.0837 7.82439 13.7585 7.82439C12.6171 7.82439 11.6942 6.89808 11.6942 5.75704V1.16559ZM6.53813 1.16559H10.5322V5.75704C10.5322 6.86555 9.66498 7.82639 8.53298 7.82639C7.38242 7.82639 6.53813 6.8548 6.53813 5.73823V1.16559ZM7.08279 11.8408H9.91497V15.8349H7.08279V11.8408ZM1.23751 5.2284L2.225 1.30073C2.24388 1.22582 2.31138 1.16562 2.38865 1.16562H5.3399V5.73827C5.3399 6.88919 4.40996 7.82559 3.25889 7.82639C1.91967 7.82555 0.910645 6.52638 1.23751 5.2284Z" fill="#96A2AA"/>
</g>
<defs>
<clipPath id="clip0_1_4345">
<rect width="17" height="17" fill="white"/>
</clipPath>
</defs>
</svg>
