<svg width="59" height="59" viewBox="0 0 59 59" fill="none" xmlns="http://www.w3.org/2000/svg">
<path d="M47.7139 3.23849L44.0435 9.22113C43.9747 9.20926 43.9044 9.20926 43.8356 9.22113H33.7483C33.7152 9.20476 33.6803 9.19244 33.6443 9.18443L29.8516 3.23849C29.6914 2.99167 29.6182 2.69845 29.6436 2.40531C29.669 2.11218 29.7914 1.83589 29.9916 1.62026C30.1918 1.40462 30.4582 1.26197 30.7487 1.21492C31.0391 1.16786 31.337 1.2191 31.595 1.3605L33.9073 2.58395C34.2265 2.75569 34.5928 2.81931 34.9513 2.76526C35.3097 2.71122 35.641 2.54243 35.8954 2.2842L37.5899 0.510208C37.7451 0.348871 37.9313 0.220525 38.1373 0.132856C38.3434 0.0451874 38.565 0 38.7889 0C39.0127 0 39.2343 0.0451874 39.4404 0.132856C39.6464 0.220525 39.8326 0.348871 39.9878 0.510208L41.6823 2.2842C41.9357 2.54192 42.2659 2.71046 42.6233 2.76451C42.9807 2.81856 43.346 2.7552 43.6643 2.58395L45.9827 1.3605C46.2405 1.23512 46.5318 1.19614 46.8135 1.24934C47.0952 1.30255 47.3522 1.4451 47.5465 1.65587C47.7408 1.86664 47.862 2.13441 47.8921 2.41947C47.9223 2.70454 47.8598 2.99174 47.7139 3.23849Z" fill="#F4B732"/>
<path d="M47.713 3.24466L44.0426 9.2273C43.9762 9.2027 43.9053 9.19229 43.8346 9.19671H40.4885L44.1589 3.24466C44.2573 3.097 44.3234 2.93021 44.353 2.75522C44.3825 2.58023 44.3747 2.40098 44.3301 2.2292L45.9818 1.35443C46.2409 1.22559 46.5349 1.18453 46.8194 1.23746C47.1039 1.29039 47.3635 1.43443 47.559 1.64784C47.7544 1.86125 47.8751 2.13245 47.9029 2.4205C47.9307 2.70855 47.864 2.99782 47.713 3.24466Z" fill="#F4B732"/>
<path d="M40.2637 9.18479H40.49V9.21538C40.4179 9.18812 40.3405 9.17766 40.2637 9.18479Z" fill="#EB5463"/>
<path d="M45.7507 11.1361C45.7525 11.5229 45.6364 11.9011 45.4179 12.2202C45.1993 12.5393 44.8886 12.7843 44.5273 12.9223C44.3023 13.0075 44.0643 13.053 43.8238 13.0569H33.7487C33.504 13.055 33.2617 13.0094 33.033 12.9223C32.6108 12.769 32.2553 12.473 32.0282 12.0854C31.801 11.6979 31.7164 11.2432 31.789 10.7998C31.8615 10.3565 32.0867 9.95248 32.4255 9.65756C32.7644 9.36264 33.1956 9.19538 33.6447 9.18469C33.6873 9.17866 33.7306 9.17866 33.7732 9.18469H43.8238C43.8926 9.17281 43.9629 9.17281 44.0318 9.18469C44.5124 9.23105 44.9575 9.45847 45.2767 9.82083C45.5959 10.1832 45.7654 10.6534 45.7507 11.1361Z" fill="#F4F6F8"/>
<path d="M45.752 11.1416C45.753 11.5282 45.6365 11.906 45.4181 12.225C45.1996 12.5439 44.8894 12.789 44.5286 12.9278C44.3023 13.0075 44.0649 13.0509 43.8251 13.0563H40.3016C40.5352 13.049 40.7663 13.0057 40.9867 12.9278C41.3884 12.7718 41.7259 12.4853 41.9451 12.1143C42.1643 11.7434 42.2524 11.3095 42.1952 10.8824C42.138 10.4553 41.9389 10.0599 41.6298 9.7596C41.3208 9.45934 40.9197 9.27172 40.4912 9.22689C40.4248 9.2023 40.3539 9.19188 40.2832 9.1963H43.8067C43.8774 9.19188 43.9483 9.2023 44.0147 9.22689C44.4917 9.26986 44.9351 9.49059 45.2569 9.84527C45.5788 10.2 45.7555 10.6627 45.752 11.1416Z" fill="#E4E8EB"/>
<path d="M56.3326 40.2485C56.2097 40.2228 56.0849 40.2064 55.9595 40.1995C55.4488 40.1662 54.9384 40.2674 54.4791 40.4932L43.621 45.5032L43.15 45.7234C43.4249 45.2997 43.5889 44.8139 43.6272 44.3103V43.9861C43.6033 43.2045 43.2755 42.463 42.7135 41.9192C42.1514 41.3755 41.3995 41.0723 40.6175 41.0743H33.705C32.5054 39.9926 31.1809 39.0582 29.7594 38.291C27.6619 37.112 25.3178 36.4396 22.9143 36.3273L20.7977 36.2845C20.7116 33.8032 20.8549 31.3193 21.2259 28.8643C22.4616 19.921 31.0869 14.1218 33.0321 12.9229C33.2571 13.0081 33.4951 13.0536 33.7356 13.0574H43.8229C44.0634 13.0536 44.3015 13.0081 44.5264 12.9229C46.4839 14.1463 55.1092 19.921 56.3755 28.8643C57.0545 33.6174 56.926 37.3244 56.3326 40.2485Z" fill="#F4B732"/>
<path d="M56.3344 40.2485C56.2114 40.2228 56.0867 40.2064 55.9612 40.1995C55.4506 40.1662 54.9401 40.2674 54.4809 40.4932L52.2664 41.5147C52.8015 37.3132 52.7769 33.0593 52.193 28.8643C50.9696 20.2146 42.8582 14.5072 40.5703 13.0574H43.8369C44.0774 13.0536 44.3154 13.0081 44.5404 12.9229C46.4979 14.1463 55.1232 19.921 56.3894 28.8643C57.0562 33.6174 56.9278 37.3244 56.3344 40.2485Z" fill="#F7B426"/>
<path d="M46.4891 29.3224C46.4903 30.8462 46.0395 32.336 45.1937 33.6035C44.3479 34.8709 43.1451 35.859 41.7376 36.4427C40.3301 37.0264 38.781 37.1794 37.2865 36.8824C35.792 36.5855 34.4191 35.8518 33.3417 34.7744C32.2642 33.6969 31.5306 32.3241 31.2336 30.8295C30.9367 29.335 31.0897 27.786 31.6734 26.3784C32.257 24.9709 33.2451 23.7682 34.5126 22.9224C35.78 22.0766 37.2699 21.6257 38.7936 21.627C40.8346 21.627 42.792 22.4377 44.2352 23.8809C45.6783 25.3241 46.4891 27.2815 46.4891 29.3224Z" fill="#F4F6F8"/>
<path d="M46.4907 29.3229C46.4885 31.0027 45.9371 32.6356 44.9206 33.973C43.9042 35.3103 42.4783 36.2786 40.8604 36.7304C39.2425 37.1822 37.5213 37.0926 35.9591 36.4753C34.3968 35.858 33.0792 34.7469 32.207 33.3113C33.6812 34.1966 35.4093 34.5631 37.116 34.3523C38.8226 34.1416 40.4097 33.3657 41.6242 32.1483C42.8387 30.931 43.6109 29.3422 43.8177 27.635C44.0245 25.9279 43.6541 24.2007 42.7654 22.7285C43.9022 23.4132 44.8427 24.3802 45.4955 25.5357C46.1482 26.6911 46.4911 27.9958 46.4907 29.3229Z" fill="#E4E8EB"/>
<path d="M58.7245 43.1541C58.7223 43.6777 58.5813 44.1913 58.3159 44.6427C58.0504 45.094 57.6701 45.4669 57.2135 45.7233C57.2135 45.7233 39.7611 58.2881 32.0167 58.7346C26.9822 59.0099 13.457 50.8557 13.457 50.8557V36.3273C13.457 36.3273 15.0536 36.2844 17.4516 36.2783H20.7977L22.9448 36.3211C25.3484 36.4334 27.6925 37.1058 29.79 38.2848C31.2114 39.052 32.536 39.9864 33.7356 41.0681H40.6114C41.3934 41.0661 42.1453 41.3693 42.7073 41.913C43.2694 42.4568 43.5972 43.1983 43.621 43.9799V44.3041C43.5828 44.8077 43.4188 45.2935 43.1439 45.7172L43.6149 45.497L54.473 40.487C54.9323 40.2612 55.4427 40.16 55.9534 40.1933C56.0788 40.2002 56.2035 40.2166 56.3265 40.2423C57.0019 40.3742 57.6104 40.7368 58.0478 41.268C58.4853 41.7992 58.7245 42.4659 58.7245 43.1541Z" fill="#F4D0B5"/>
<path d="M58.7245 43.1535C58.7223 43.6771 58.5813 44.1908 58.3159 44.6421C58.0504 45.0935 57.6701 45.4664 57.2135 45.7227C57.2135 45.7227 39.7611 58.2875 32.0167 58.7341C26.9822 59.0093 13.457 50.8551 13.457 50.8551V47.4356C13.457 47.4356 26.9822 55.5898 32.0167 55.3084C39.7794 54.868 57.2135 42.3032 57.2135 42.3032C57.5954 42.0926 57.9223 41.795 58.1678 41.4346C58.5332 41.9328 58.7285 42.5356 58.7245 43.1535Z" fill="#EFC7A4"/>
<path d="M11.5921 33.4033H1.83517C0.821632 33.4033 0 34.2249 0 35.2385V51.9385C0 52.952 0.821632 53.7737 1.83517 53.7737H11.5921C12.6057 53.7737 13.4273 52.952 13.4273 51.9385V35.2385C13.4273 34.2249 12.6057 33.4033 11.5921 33.4033Z" fill="#656D78"/>
<path d="M13.4579 35.2434V51.9434C13.4579 52.4301 13.2645 52.8969 12.9204 53.241C12.5762 53.5852 12.1094 53.7785 11.6227 53.7785H1.83517C1.34845 53.7785 0.881668 53.5852 0.537508 53.241C0.193347 52.8969 0 52.4301 0 51.9434V51.2032C2.94501 51.0225 5.71013 49.725 7.73127 47.5754C9.75241 45.4258 10.8773 42.5861 10.8764 39.6355V33.4082H11.6227C12.1094 33.4082 12.5762 33.6016 12.9204 33.9457C13.2645 34.2899 13.4579 34.7567 13.4579 35.2434Z" fill="#434A54"/>
<path d="M10.7783 49.3814C10.7783 49.7274 10.6757 50.0656 10.4835 50.3534C10.2913 50.6411 10.018 50.8653 9.69834 50.9977C9.37865 51.1301 9.02688 51.1648 8.68751 51.0973C8.34813 51.0298 8.0364 50.8631 7.79172 50.6185C7.54705 50.3738 7.38042 50.0621 7.31291 49.7227C7.24541 49.3833 7.28005 49.0315 7.41247 48.7119C7.54489 48.3922 7.76913 48.1189 8.05684 47.9267C8.34455 47.7345 8.6828 47.6318 9.02882 47.6318C9.2588 47.631 9.48666 47.6757 9.69929 47.7634C9.91192 47.851 10.1051 47.9799 10.2677 48.1425C10.4303 48.3051 10.5592 48.4983 10.6468 48.7109C10.7345 48.9235 10.7792 49.1514 10.7783 49.3814Z" fill="white"/>
<path d="M43.627 44.083C43.687 44.4811 43.6635 44.8873 43.5582 45.2759C43.4529 45.6645 43.268 46.0269 43.0153 46.3403C42.7517 46.6771 42.4241 46.9586 42.0515 47.1686C41.6788 47.3785 41.2683 47.5128 40.8436 47.5637C39.2715 47.686 37.785 47.6922 36.2924 47.7105C34.7998 47.7289 33.2766 47.6738 31.7718 47.5759C30.2635 47.5054 28.7604 47.3502 27.2695 47.111C28.7729 46.8684 30.288 46.7051 31.8085 46.6217C33.3133 46.5238 34.8182 46.4993 36.3291 46.4871L38.5864 46.5238L40.8131 46.6155C41.5047 46.5908 42.1657 46.3235 42.6801 45.8605C43.1946 45.3975 43.5298 44.7683 43.627 44.083Z" fill="#EFC7A4"/>
<path d="M41.2414 31.2065C41.2286 31.726 41.0403 32.2259 40.707 32.6247C40.3738 33.0235 39.9153 33.2977 39.4063 33.4026V33.9776C39.4063 34.1398 39.3418 34.2954 39.2271 34.4101C39.1124 34.5249 38.9568 34.5893 38.7945 34.5893C38.6323 34.5893 38.4767 34.5249 38.362 34.4101C38.2473 34.2954 38.1828 34.1398 38.1828 33.9776V33.4026C37.6738 33.2977 37.2153 33.0235 36.8821 32.6247C36.5488 32.2259 36.3605 31.726 36.3477 31.2065C36.3477 31.0442 36.4121 30.8886 36.5268 30.7739C36.6415 30.6592 36.7971 30.5948 36.9594 30.5948C37.1216 30.5948 37.2772 30.6592 37.3919 30.7739C37.5067 30.8886 37.5711 31.0442 37.5711 31.2065C37.535 31.4529 37.575 31.7044 37.6856 31.9275C37.7962 32.1505 37.9723 32.3345 38.1903 32.4549C38.4083 32.5752 38.6578 32.6262 38.9056 32.601C39.1533 32.5757 39.3874 32.4755 39.5767 32.3137C39.7659 32.1519 39.9013 31.9362 39.9647 31.6954C40.0281 31.4546 40.0166 31.2002 39.9316 30.9661C39.8465 30.7321 39.6921 30.5295 39.489 30.3856C39.2858 30.2416 39.0435 30.1631 38.7945 30.1604C38.1691 30.1803 37.561 29.9524 37.1028 29.5262C36.6445 29.1 36.3731 28.5101 36.3477 27.8848C36.3605 27.3653 36.5488 26.8654 36.8821 26.4666C37.2153 26.0678 37.6738 25.7936 38.1828 25.6887V25.0893C38.1828 24.927 38.2473 24.7714 38.362 24.6567C38.4767 24.542 38.6323 24.4775 38.7945 24.4775C38.9568 24.4775 39.1124 24.542 39.2271 24.6567C39.3418 24.7714 39.4063 24.927 39.4063 25.0893V25.6643C39.9153 25.7692 40.3738 26.0433 40.707 26.4421C41.0403 26.8409 41.2286 27.3408 41.2414 27.8604C41.2414 28.0226 41.177 28.1782 41.0623 28.2929C40.9475 28.4076 40.7919 28.4721 40.6297 28.4721C40.4675 28.4721 40.3119 28.4076 40.1972 28.2929C40.0824 28.1782 40.018 28.0226 40.018 27.8604C40.0528 27.614 40.0117 27.3629 39.9001 27.1406C39.7886 26.9182 39.6119 26.7351 39.3936 26.6157C39.1754 26.4964 38.9259 26.4464 38.6785 26.4724C38.4311 26.4985 38.1975 26.5993 38.0089 26.7615C37.8202 26.9238 37.6855 27.1396 37.6228 27.3803C37.56 27.6211 37.5721 27.8752 37.6574 28.1089C37.7428 28.3426 37.8973 28.5447 38.1005 28.6883C38.3037 28.8318 38.5458 28.9101 38.7945 28.9125C39.106 28.9019 39.4164 28.9529 39.7081 29.0625C39.9998 29.1722 40.267 29.3383 40.4943 29.5514C40.7216 29.7646 40.9047 30.0205 41.0329 30.3045C41.1611 30.5885 41.232 30.895 41.2414 31.2065Z" fill="#F4B732"/>
</svg>
