<svg width="91" height="81" viewBox="0 0 91 81" fill="none" xmlns="http://www.w3.org/2000/svg">
<g clip-path="url(#clip0_1_3)">
<path fill-rule="evenodd" clip-rule="evenodd" d="M80.3058 24.385H10.693V73.1547C10.693 77.0024 13.8096 80.1223 17.6542 80.1223H73.3446C77.1892 80.1223 80.3058 77.0024 80.3058 73.1547V24.385Z" fill="#F9E0AB"/>
<path fill-rule="evenodd" clip-rule="evenodd" d="M66.3837 47.0279C66.3837 46.5661 66.2004 46.1231 65.874 45.7964C65.5476 45.4697 65.105 45.286 64.6436 45.286C60.7103 45.286 51.1734 45.286 47.2402 45.286C46.7787 45.286 46.3361 45.4697 46.0097 45.7964C45.6832 46.1231 45.5 46.5661 45.5 47.0279V80.1216H66.3837V47.0279Z" fill="#F4B732"/>
<path fill-rule="evenodd" clip-rule="evenodd" d="M12.5299 0H78.4701C81.6092 0 84.3604 2.10278 85.1863 5.1339C86.5738 10.2261 88.7578 18.2412 90.6319 25.1186C91.4885 28.261 90.8317 31.6236 88.8564 34.212C86.8811 36.8004 83.8124 38.3191 80.5583 38.3191C80.0266 38.3191 79.4991 38.3191 78.9791 38.3191C73.7579 38.3191 69.3386 34.4587 68.6332 29.2806C68.5729 28.8373 68.4737 28.3792 68.3438 27.9084C68.3344 30.4059 67.4304 32.8357 65.7685 34.7409C63.7856 37.0146 60.9174 38.3191 57.902 38.3191C57.2469 38.3191 56.591 38.3191 55.9419 38.3191C53.1727 38.3191 50.5166 37.2181 48.5584 35.2582C46.6002 33.2984 45.5001 30.6401 45.5001 27.8685C45.5001 30.6401 44.3999 33.2984 42.4417 35.2582C40.4832 37.2181 37.8274 38.3191 35.0579 38.3191C34.4088 38.3191 33.7529 38.3191 33.0978 38.3191C30.0824 38.3191 27.2142 37.0146 25.2313 34.7409C23.2483 32.4673 22.3443 29.4468 22.7518 26.4564L22.3668 29.2806C21.6614 34.4587 17.2425 38.3191 12.0208 38.3191C11.5012 38.3191 10.9733 38.3191 10.442 38.3191C7.18756 38.3191 4.11919 36.8004 2.14378 34.212C0.168373 31.6236 -0.488217 28.261 0.367919 25.1186C2.24214 18.2412 4.42619 10.2261 5.81392 5.1339C6.63967 2.10278 9.39072 0 12.5299 0Z" fill="#006CB6"/>
</g>
<defs>
<clipPath id="clip0_1_3">
<rect width="91" height="80.1196" fill="white"/>
</clipPath>
</defs>
</svg>
