<?xml version="1.0" encoding="UTF-8"?>
<svg xmlns="http://www.w3.org/2000/svg" xmlns:xlink="http://www.w3.org/1999/xlink" width="200px" height="59px" viewBox="0 0 200 59" version="1.1">
<g id="surface1">
<path style=" stroke:none;fill-rule:nonzero;fill:rgb(6.27451%,5.882353%,5.098039%);fill-opacity:1;" d="M 192.589844 59.371094 L 7.410156 59.371094 C 3.335938 59.371094 0.00390625 56.03125 0.00390625 51.949219 L 0.00390625 7.421875 C 0.00390625 3.339844 3.335938 0 7.410156 0 L 192.589844 0 C 196.664062 0 199.996094 3.339844 199.996094 7.421875 L 199.996094 51.949219 C 199.996094 56.03125 196.664062 59.371094 192.589844 59.371094 "/>
<path style=" stroke:none;fill-rule:nonzero;fill:rgb(63.529412%,63.529412%,63.137255%);fill-opacity:1;" d="M 192.589844 0 L 7.410156 0 C 3.335938 0 0.00390625 3.339844 0.00390625 7.421875 L 0.00390625 51.949219 C 0.00390625 56.03125 3.335938 59.371094 7.410156 59.371094 L 192.589844 59.371094 C 196.664062 59.371094 199.996094 56.03125 199.996094 51.949219 L 199.996094 7.421875 C 199.996094 3.339844 196.664062 0 192.589844 0 Z M 192.589844 1.1875 C 196.019531 1.1875 198.8125 3.984375 198.8125 7.421875 L 198.8125 51.949219 C 198.8125 55.386719 196.019531 58.183594 192.589844 58.183594 L 7.410156 58.183594 C 3.980469 58.183594 1.191406 55.386719 1.191406 51.949219 L 1.191406 7.421875 C 1.191406 3.984375 3.980469 1.1875 7.410156 1.1875 L 192.589844 1.1875 "/>
<path style=" stroke:none;fill-rule:nonzero;fill:rgb(100%,100%,100%);fill-opacity:1;" d="M 158.421875 44.527344 L 161.1875 44.527344 L 161.1875 25.972656 L 158.421875 25.972656 Z M 183.320312 32.65625 L 180.152344 40.703125 L 180.058594 40.703125 L 176.769531 32.65625 L 173.792969 32.65625 L 178.722656 43.902344 L 175.910156 50.15625 L 178.792969 50.15625 L 186.394531 32.65625 Z M 167.644531 42.421875 C 166.738281 42.421875 165.476562 41.964844 165.476562 40.84375 C 165.476562 39.414062 167.050781 38.863281 168.40625 38.863281 C 169.621094 38.863281 170.195312 39.125 170.933594 39.484375 C 170.71875 41.203125 169.242188 42.421875 167.644531 42.421875 Z M 167.976562 32.25 C 165.976562 32.25 163.902344 33.132812 163.046875 35.09375 L 165.5 36.117188 C 166.023438 35.09375 167 34.757812 168.027344 34.757812 C 169.457031 34.757812 170.910156 35.617188 170.933594 37.144531 L 170.933594 37.335938 C 170.429688 37.050781 169.359375 36.621094 168.050781 36.621094 C 165.402344 36.621094 162.710938 38.074219 162.710938 40.796875 C 162.710938 43.28125 164.878906 44.878906 167.308594 44.878906 C 169.167969 44.878906 170.195312 44.042969 170.835938 43.066406 L 170.933594 43.066406 L 170.933594 44.496094 L 173.601562 44.496094 L 173.601562 37.382812 C 173.601562 34.089844 171.144531 32.25 167.976562 32.25 Z M 150.894531 34.914062 L 146.960938 34.914062 L 146.960938 28.554688 L 150.894531 28.554688 C 152.960938 28.554688 154.132812 30.269531 154.132812 31.734375 C 154.132812 33.171875 152.960938 34.914062 150.894531 34.914062 Z M 150.824219 25.972656 L 144.199219 25.972656 L 144.199219 44.527344 L 146.960938 44.527344 L 146.960938 37.5 L 150.824219 37.5 C 153.886719 37.5 156.898438 35.277344 156.898438 31.738281 C 156.898438 28.195312 153.886719 25.972656 150.824219 25.972656 Z M 114.703125 42.421875 C 112.792969 42.421875 111.195312 40.820312 111.195312 38.621094 C 111.195312 36.398438 112.792969 34.773438 114.703125 34.773438 C 116.589844 34.773438 118.070312 36.398438 118.070312 38.621094 C 118.070312 40.820312 116.589844 42.421875 114.703125 42.421875 Z M 117.878906 33.695312 L 117.78125 33.695312 C 117.160156 32.953125 115.96875 32.285156 114.464844 32.285156 C 111.3125 32.285156 108.425781 35.058594 108.425781 38.621094 C 108.425781 42.160156 111.3125 44.910156 114.464844 44.910156 C 115.96875 44.910156 117.160156 44.242188 117.78125 43.476562 L 117.878906 43.476562 L 117.878906 44.382812 C 117.878906 46.800781 116.589844 48.089844 114.511719 48.089844 C 112.820312 48.089844 111.769531 46.871094 111.339844 45.84375 L 108.929688 46.847656 C 109.621094 48.519531 111.457031 50.578125 114.511719 50.578125 C 117.757812 50.578125 120.503906 48.664062 120.503906 44 L 120.503906 32.667969 L 117.878906 32.667969 Z M 122.414062 44.527344 L 125.179688 44.527344 L 125.179688 25.972656 L 122.414062 25.972656 Z M 129.261719 38.40625 C 129.191406 35.96875 131.148438 34.722656 132.554688 34.722656 C 133.65625 34.722656 134.585938 35.273438 134.894531 36.0625 Z M 137.855469 36.300781 C 137.328125 34.890625 135.730469 32.285156 132.460938 32.285156 C 129.214844 32.285156 126.519531 34.84375 126.519531 38.597656 C 126.519531 42.136719 129.191406 44.910156 132.769531 44.910156 C 135.65625 44.910156 137.328125 43.140625 138.023438 42.113281 L 135.875 40.679688 C 135.15625 41.730469 134.179688 42.421875 132.769531 42.421875 C 131.363281 42.421875 130.359375 41.777344 129.71875 40.511719 L 138.140625 37.019531 Z M 70.734375 34.222656 L 70.734375 36.898438 L 77.128906 36.898438 C 76.9375 38.40625 76.4375 39.507812 75.671875 40.273438 C 74.742188 41.203125 73.285156 42.234375 70.734375 42.234375 C 66.796875 42.234375 63.714844 39.050781 63.714844 35.105469 C 63.714844 31.160156 66.796875 27.980469 70.734375 27.980469 C 72.855469 27.980469 74.410156 28.816406 75.554688 29.894531 L 77.441406 28.003906 C 75.839844 26.472656 73.714844 25.304688 70.734375 25.304688 C 65.339844 25.304688 60.804688 29.703125 60.804688 35.105469 C 60.804688 40.511719 65.339844 44.910156 70.734375 44.910156 C 73.644531 44.910156 75.839844 43.953125 77.558594 42.160156 C 79.324219 40.390625 79.875 37.90625 79.875 35.894531 C 79.875 35.273438 79.824219 34.699219 79.730469 34.222656 Z M 87.144531 42.421875 C 85.238281 42.421875 83.589844 40.84375 83.589844 38.597656 C 83.589844 36.328125 85.238281 34.773438 87.144531 34.773438 C 89.054688 34.773438 90.703125 36.328125 90.703125 38.597656 C 90.703125 40.84375 89.054688 42.421875 87.144531 42.421875 Z M 87.144531 32.285156 C 83.660156 32.285156 80.820312 34.9375 80.820312 38.597656 C 80.820312 42.234375 83.660156 44.910156 87.144531 44.910156 C 90.628906 44.910156 93.472656 42.234375 93.472656 38.597656 C 93.472656 34.9375 90.628906 32.285156 87.144531 32.285156 Z M 100.941406 42.421875 C 99.035156 42.421875 97.386719 40.84375 97.386719 38.597656 C 97.386719 36.328125 99.035156 34.773438 100.941406 34.773438 C 102.851562 34.773438 104.5 36.328125 104.5 38.597656 C 104.5 40.84375 102.851562 42.421875 100.941406 42.421875 Z M 100.941406 32.285156 C 97.457031 32.285156 94.621094 34.9375 94.621094 38.597656 C 94.621094 42.234375 97.457031 44.910156 100.941406 44.910156 C 104.429688 44.910156 107.269531 42.234375 107.269531 38.597656 C 107.269531 34.9375 104.429688 32.285156 100.941406 32.285156 "/>
<path style=" stroke:none;fill-rule:nonzero;fill:rgb(92.156863%,19.215686%,19.215686%);fill-opacity:1;" d="M 30.691406 28.832031 L 14.921875 45.601562 C 14.921875 45.605469 14.921875 45.609375 14.921875 45.613281 C 15.40625 47.433594 17.066406 48.773438 19.035156 48.773438 C 19.824219 48.773438 20.5625 48.5625 21.199219 48.1875 L 21.25 48.15625 L 39 37.894531 L 30.691406 28.832031 "/>
<path style=" stroke:none;fill-rule:nonzero;fill:rgb(96.470588%,71.372549%,4.313725%);fill-opacity:1;" d="M 46.648438 25.976562 L 46.632812 25.964844 L 38.96875 21.511719 L 30.332031 29.210938 L 38.996094 37.890625 L 46.621094 33.484375 C 47.957031 32.761719 48.867188 31.351562 48.867188 29.722656 C 48.867188 28.105469 47.972656 26.699219 46.648438 25.976562 "/>
<path style=" stroke:none;fill-rule:nonzero;fill:rgb(34.117647%,47.058824%,77.254902%);fill-opacity:1;" d="M 14.917969 13.769531 C 14.824219 14.121094 14.773438 14.488281 14.773438 14.867188 L 14.773438 44.503906 C 14.773438 44.886719 14.824219 45.253906 14.917969 45.601562 L 31.234375 29.261719 L 14.917969 13.769531 "/>
<path style=" stroke:none;fill-rule:nonzero;fill:rgb(23.137255%,67.843137%,28.627451%);fill-opacity:1;" d="M 30.808594 29.6875 L 38.972656 21.511719 L 21.238281 11.210938 C 20.59375 10.824219 19.839844 10.597656 19.035156 10.597656 C 17.066406 10.597656 15.402344 11.941406 14.917969 13.765625 C 14.917969 13.769531 14.917969 13.769531 14.917969 13.769531 L 30.808594 29.6875 "/>
<path style="fill-rule:nonzero;fill:rgb(100%,100%,100%);fill-opacity:1;stroke-width:0.26666;stroke-linecap:butt;stroke-linejoin:miter;stroke:rgb(100%,100%,100%);stroke-opacity:1;stroke-miterlimit:10;" d="M 63.193359 13.042969 L 59.305078 13.042969 L 59.305078 14.004436 L 62.219531 14.004436 C 62.138672 14.790453 61.825781 15.408038 61.298437 15.853681 C 60.771094 16.302834 60.099609 16.52741 59.305078 16.52741 C 58.429687 16.52741 57.691406 16.222127 57.083203 15.618578 C 56.492578 15.000993 56.190234 14.239539 56.190234 13.32018 C 56.190234 12.40433 56.492578 11.639367 57.083203 11.021782 C 57.691406 10.418234 58.429687 10.116459 59.305078 10.116459 C 59.751562 10.116459 60.176953 10.193657 60.570703 10.36209 C 60.960937 10.530522 61.277344 10.765625 61.523437 11.070908 L 62.261719 10.330508 C 61.927734 9.948027 61.502344 9.65678 60.975 9.44273 C 60.447656 9.23219 59.895703 9.130429 59.305078 9.130429 C 58.137891 9.130429 57.15 9.533965 56.344922 10.341035 C 55.539844 11.148106 55.135547 12.144664 55.135547 13.32018 C 55.135547 14.499206 55.539844 15.495763 56.344922 16.302834 C 57.15 17.109905 58.137891 17.51344 59.305078 17.51344 C 60.525 17.51344 61.502344 17.120432 62.251172 16.323888 C 62.912109 15.664195 63.249609 14.76589 63.249609 13.646517 C 63.249609 13.457031 63.225 13.253509 63.193359 13.042969 Z M 64.698047 9.309388 L 64.698047 17.334481 L 69.384375 17.334481 L 69.384375 16.348451 L 65.731641 16.348451 L 65.731641 13.800914 L 69.025781 13.800914 L 69.025781 12.839447 L 65.731641 12.839447 L 65.731641 10.295418 L 69.384375 10.295418 L 69.384375 9.309388 Z M 75.955078 10.295418 L 75.955078 9.309388 L 70.439062 9.309388 L 70.439062 10.295418 L 72.682031 10.295418 L 72.682031 17.334481 L 73.712109 17.334481 L 73.712109 10.295418 Z M 80.947266 9.309388 L 79.917187 9.309388 L 79.917187 17.334481 L 80.947266 17.334481 Z M 87.753516 10.295418 L 87.753516 9.309388 L 82.241016 9.309388 L 82.241016 10.295418 L 84.480469 10.295418 L 84.480469 17.334481 L 85.510547 17.334481 L 85.510547 10.295418 Z M 98.159766 10.351563 C 97.365234 9.533965 96.387891 9.130429 95.224219 9.130429 C 94.057031 9.130429 93.083203 9.533965 92.288672 10.341035 C 91.490625 11.137579 91.100391 12.134137 91.100391 13.32018 C 91.100391 14.509733 91.490625 15.50629 92.288672 16.302834 C 93.083203 17.109905 94.057031 17.51344 95.224219 17.51344 C 96.377344 17.51344 97.365234 17.109905 98.159766 16.302834 C 98.954297 15.50629 99.348047 14.509733 99.348047 13.32018 C 99.348047 12.144664 98.954297 11.148106 98.159766 10.351563 Z M 93.026953 11.021782 C 93.621094 10.418234 94.348828 10.116459 95.224219 10.116459 C 96.096094 10.116459 96.827344 10.418234 97.410937 11.021782 C 98.005078 11.618313 98.296875 12.390294 98.296875 13.32018 C 98.296875 14.253575 98.005078 15.025556 97.410937 15.618578 C 96.827344 16.222127 96.096094 16.52741 95.224219 16.52741 C 94.348828 16.52741 93.621094 16.222127 93.026953 15.618578 C 92.446875 15.01152 92.155078 14.253575 92.155078 13.32018 C 92.155078 12.390294 92.446875 11.62884 93.026953 11.021782 Z M 101.798437 12.337659 L 101.752734 10.786679 L 101.798437 10.786679 L 105.876562 17.334481 L 106.952344 17.334481 L 106.952344 9.309388 L 105.922266 9.309388 L 105.922266 14.004436 L 105.964453 15.551907 L 105.922266 15.551907 L 102.023437 9.309388 L 100.764844 9.309388 L 100.764844 17.334481 L 101.798437 17.334481 Z M 101.798437 12.337659 " transform="matrix(1.111111,0,0,1.113208,0,-0.000000000000003955)"/>
</g>
</svg>
