<svg width="64" height="58" viewBox="0 0 64 58" fill="none" xmlns="http://www.w3.org/2000/svg">
<path d="M63.3324 25.5243L31.6597 57.1837L0.000244141 25.5243L8.23647 17.2881H55.0962L63.3324 25.5243Z" fill="#63AFFA"/>
<path d="M63.3339 25.5276L31.6638 57.1844L21.9576 47.4782C19.7744 45.295 21.3131 41.5598 24.4038 41.5598H24.4696C24.6275 41.5598 24.7853 41.5598 24.9431 41.5336C30.0855 41.2969 34.1627 37.0619 34.1627 31.8668V17.2812H55.1007L63.3339 25.5276Z" fill="#529FFB"/>
<path d="M45.267 25.5243L31.664 57.1837L18.0667 25.5243L21.604 17.2881H41.7297L45.267 25.5243Z" fill="#82C8FB"/>
<path d="M45.273 25.5276L31.6606 57.1844L24.9399 41.5336C30.0823 41.2969 34.1595 37.0619 34.1595 31.8668V17.2812H41.7351L45.273 25.5276Z" fill="#63AFFA"/>
<path d="M63.3326 25.5239H0.000488281L8.13177 17.3926H55.2013L63.3326 25.5239Z" fill="#82C8FB"/>
<path d="M33.9456 25.5249H63.3336L55.2023 17.3936H52.0891C51.4206 17.3936 50.8788 17.9354 50.8788 18.6038C50.8788 20.9645 48.9651 22.8782 46.6044 22.8782H33.9456V25.5249Z" fill="#63AFFA"/>
<path d="M33.7253 22.7951H32.9855V17.3926H8.13172L0.000488281 25.5239H33.7253V22.7951Z" fill="#97D5FC"/>
<path d="M25.067 17.3926H14.0795C14.0795 20.2855 11.7343 22.6307 8.84142 22.6307H2.89371L0.000488281 25.5239H25.067V17.3926Z" fill="#82C8FB"/>
<path d="M45.267 25.5239H18.0667L21.5589 17.3926H41.7747L45.267 25.5239Z" fill="#63AFFA"/>
<path d="M41.7748 17.3926H37.6486C37.0256 17.3926 36.5205 17.8976 36.5205 18.5207C36.5205 20.4274 34.9748 21.9731 33.0681 21.9731H22.0344C20.5523 21.9731 19.2126 22.8557 18.6277 24.2175L18.0667 25.5239H45.267L41.7748 17.3926Z" fill="#529FFB"/>
<path d="M31.6658 8.2791C31.0043 8.2791 30.4688 7.74351 30.4688 7.0827V1.1964C30.4688 0.535585 31.0043 0 31.6658 0C32.3272 0 32.8628 0.535585 32.8628 1.1964V7.0827C32.8628 7.74351 32.3272 8.2791 31.6658 8.2791Z" fill="#82C8FB"/>
<path d="M17.284 11.2566L14.3402 6.15824C14.0101 5.58605 14.2053 4.85395 14.7781 4.52323C15.351 4.19186 16.0805 4.38837 16.4131 4.9612L19.3569 10.0595C19.687 10.6317 19.4918 11.3638 18.919 11.6945C18.3417 12.0264 17.6134 11.826 17.284 11.2566Z" fill="#82C8FB"/>
<path d="M44.409 11.6953C43.8362 11.3646 43.6409 10.6325 43.971 10.0603L46.9148 4.96199C47.2462 4.3898 47.977 4.19522 48.5498 4.52402C49.1227 4.85475 49.3179 5.58684 48.9878 6.15903L46.044 11.2574C45.7145 11.8268 44.9864 12.0272 44.409 11.6953Z" fill="#82C8FB"/>
</svg>
