<svg width="121" height="92" viewBox="0 0 121 92" fill="none" xmlns="http://www.w3.org/2000/svg">
<path d="M11.8079 41.2764L59.9606 89.5282C62.3362 91.9086 66.1875 91.9086 68.563 89.5282C70.9386 87.1478 70.9386 83.2885 68.563 80.9081L55.7037 68.0224L55.7477 67.9783L70.2622 82.5229C72.6378 84.9033 76.4891 84.9033 78.8647 82.5229C81.2402 80.1424 81.2402 76.2832 78.8647 73.9028L64.3501 59.3583L64.3941 59.3142L80.5639 75.5173C82.9394 77.8977 86.7908 77.8977 89.1663 75.5173C91.5419 73.1368 91.5419 69.2776 89.1663 66.8972L72.9963 50.6939L73.0403 50.6499L85.8997 63.5356C88.2753 65.916 92.1266 65.916 94.5022 63.5356C96.8777 61.1552 96.8777 57.2959 94.5022 54.9155L54.3254 14.6561L41.5494 11.4739L11.8079 41.2764Z" fill="#FFD8CC"/>
<path d="M85.9005 63.5357C88.2761 65.9161 92.1274 65.9161 94.503 63.5357C94.9743 63.0633 95.3482 62.5312 95.6325 61.9654C93.2723 63.5218 90.0687 63.2601 87.9925 61.1796L75.1331 48.2938L75.0891 48.3378L72.8896 50.5417L73.0411 50.6497L85.9005 63.5357Z" fill="#FFC7B3"/>
<path d="M80.5751 75.4896C82.9507 77.87 86.802 77.87 89.1776 75.4896C89.649 75.0172 90.0228 74.4852 90.3071 73.9194C87.9469 75.4755 84.7433 75.214 82.6671 73.1335L66.6282 56.8079L64.3867 59.0519L80.5751 75.4896Z" fill="#FFC7B3"/>
<path d="M62.0528 87.1718L49.1629 74.2554L46.9404 76.4804L59.961 89.5277C62.3366 91.9081 66.1879 91.9081 68.5635 89.5277C69.0348 89.0553 69.4087 88.5232 69.693 87.9574C67.3326 89.5138 64.1289 89.2523 62.0528 87.1718Z" fill="#FFC7B3"/>
<path d="M57.7249 66.106L72.3549 79.9043C74.4863 82.0401 77.8025 82.2532 80.1781 80.5563C79.8812 81.2708 79.4452 81.941 78.8653 82.5222C76.4898 84.9026 72.6384 84.9026 70.2629 82.5222L68.5913 80.8473L55.748 67.9779L57.7249 66.106Z" fill="#FFC7B3"/>
<path d="M32.1614 0.983722L1.51597 31.1851C0.465998 32.22 0.44399 33.9092 1.46683 34.971L7.72776 41.4712C8.77005 42.5531 10.4951 42.569 11.5566 41.506L41.9389 11.087C42.9715 10.0532 42.9904 8.38162 41.9814 7.32474L35.9838 1.04207C34.9487 -0.0419368 33.2287 -0.068039 32.1614 0.983722Z" fill="#F4B732"/>
<path d="M12.5403 34.5469C11.7017 35.3873 10.3418 35.3873 9.50321 34.5469C8.66462 33.7065 8.66462 32.3441 9.50321 31.5034C10.3418 30.6628 11.7017 30.663 12.5403 31.5034C13.3789 32.3441 13.3789 33.7065 12.5403 34.5469Z" fill="white"/>
<path d="M90.7712 11.8261L72.2418 9.07051C68.3344 8.48936 64.3428 8.99963 60.7062 10.5445L49.5056 15.3033C46.8124 16.4474 44.6598 18.5837 43.4916 21.2712L35.9808 38.5513C35.4332 39.8111 35.9212 41.2818 37.1127 41.9622C41.3991 44.4105 46.8444 43.1274 49.5926 39.0214L56.395 28.8577L68.296 28.7431L93.8904 54.3899L107.881 45.7678L90.7712 11.8261Z" fill="#FFC7B3"/>
<path d="M37.1124 41.9622C37.303 42.0713 37.4968 42.17 37.6917 42.2645L45.3228 24.1481C46.4902 21.4624 48.6424 19.3271 51.3355 18.183L62.5369 13.4239C66.173 11.879 70.1646 11.369 74.0719 11.9502L92.1919 14.6448L90.7712 11.8261L72.2417 9.07051C68.3343 8.48935 64.3428 8.99962 60.7061 10.5448L49.5055 15.3035C46.8124 16.4477 44.6597 18.584 43.4915 21.2712L35.981 38.5513C35.4332 39.8111 35.9209 41.2818 37.1124 41.9622Z" fill="#F9AD95"/>
<path d="M108.23 46.4705L90.6958 11.6774C90.024 10.3444 90.5645 8.71813 91.8995 8.05483L99.551 4.25364C100.878 3.59444 102.487 4.13644 103.147 5.46509L120.197 39.7932C120.823 41.054 120.373 42.5851 119.164 43.3044L111.997 47.5706C110.661 48.3662 108.931 47.8611 108.23 46.4705Z" fill="#006CB6"/>
<path d="M112.084 37.2938C111.245 38.1342 109.886 38.1342 109.047 37.2938C108.208 36.4534 108.208 35.091 109.047 34.2503C109.886 33.41 111.245 33.41 112.084 34.2503C112.923 35.0907 112.923 36.4534 112.084 37.2938Z" fill="white"/>
<path d="M16.2684 64.2603L16.1013 64.0927C13.9884 61.9754 13.9884 58.5447 16.1013 56.4274L21.688 50.8293C23.8038 48.7091 27.2359 48.7091 29.3517 50.8293L29.5189 50.9969C31.6318 53.1142 31.6318 56.5448 29.5189 58.6622L23.9322 64.2603C21.8164 66.3802 18.384 66.3802 16.2684 64.2603Z" fill="#FFC7B3"/>
<path d="M29.4347 50.9133C29.1849 50.663 28.9155 50.4447 28.634 50.2523C29.6737 52.3276 29.3331 54.9192 27.6045 56.6516L22.185 62.0821C20.2728 63.9981 17.31 64.2164 15.1548 62.7431C15.4135 63.2596 15.7541 63.7453 16.1843 64.1765C18.3462 66.3429 21.8536 66.3429 24.0152 64.1765L29.4347 58.7459C31.5937 56.5823 31.5937 53.0767 29.4347 50.9133Z" fill="#F9AD95"/>
<path d="M24.1129 72.1138L23.9458 71.9462C21.8328 69.8289 21.8328 66.3982 23.9458 64.2809L29.5324 58.6828C31.6483 56.5626 35.0804 56.5626 37.1962 58.6828L37.3633 58.8504C39.4763 60.9677 39.4763 64.3984 37.3633 66.5157L31.7767 72.1138C29.6609 74.234 26.2285 74.234 24.1129 72.1138Z" fill="#FFC7B3"/>
<path d="M37.2797 58.7668C37.0299 58.5165 36.7604 58.2982 36.4789 58.1058C37.5187 60.1811 37.1781 62.7727 35.4494 64.5051L30.0299 69.9357C28.1178 71.8516 25.155 72.0699 22.9998 70.5967C23.2585 71.1131 23.5991 71.5988 24.0293 72.03C26.1911 74.1964 29.6985 74.1964 31.8601 72.03L37.2797 66.5995C39.4387 64.436 39.4387 60.9304 37.2797 58.7668Z" fill="#F9AD95"/>
<path d="M32.091 79.8173L31.9239 79.6496C29.8109 77.5323 29.8109 74.1017 31.9239 71.9843L37.5105 66.3862C39.6263 64.266 43.0584 64.266 45.1743 66.3862L45.3414 66.5538C47.4544 68.6712 47.4544 72.1018 45.3414 74.2191L39.7547 79.8173C37.6389 81.9374 34.2065 81.9374 32.091 79.8173Z" fill="#FFC7B3"/>
<path d="M45.2572 66.47C45.0074 66.2197 44.738 66.0014 44.4565 65.809C45.4962 67.8843 45.1556 70.4759 43.427 72.2083L38.0075 77.6388C36.0954 79.5548 33.1325 79.7731 30.9773 78.2998C31.236 78.8163 31.5766 79.302 32.0068 79.7332C34.1687 81.8996 37.6761 81.8996 39.8377 79.7332L45.2572 74.3026C47.4162 72.1392 47.4162 68.6336 45.2572 66.47Z" fill="#F9AD95"/>
<path d="M39.6708 87.9221L39.5037 87.7544C37.3907 85.6371 37.3907 82.2065 39.5037 80.0891L45.0903 74.491C47.2061 72.3708 50.6383 72.3708 52.7541 74.491L52.9212 74.6586C55.0342 76.776 55.0342 80.2066 52.9212 82.3239L47.3346 87.9221C45.2188 90.042 41.7863 90.042 39.6708 87.9221Z" fill="#FFC7B3"/>
<path d="M52.8395 74.5751C52.5897 74.3248 52.3202 74.1066 52.0388 73.9141C53.0785 75.9895 52.7379 78.581 51.0093 80.3135L45.5897 85.744C43.6776 87.66 40.7148 87.8782 38.5596 86.405C38.8183 86.9214 39.1589 87.4071 39.5891 87.8383C41.7509 90.0048 45.2583 90.0048 47.42 87.8383L52.8395 82.4078C54.9985 80.2441 54.9985 76.7385 52.8395 74.5751Z" fill="#F9AD95"/>
</svg>
