<svg width="55" height="58" viewBox="0 0 55 58" fill="none" xmlns="http://www.w3.org/2000/svg">
<path d="M25.5981 57.5769C39.7356 57.5769 51.1962 46.1162 51.1962 31.9788C51.1962 17.8413 39.7356 6.38068 25.5981 6.38068C11.4607 6.38068 0 17.8413 0 31.9788C0 46.1162 11.4607 57.5769 25.5981 57.5769Z" fill="#478CF7"/>
<path d="M42.3368 12.6123C46.5658 17.5054 48.786 23.818 48.551 30.2811C48.316 36.7442 45.6434 42.8789 41.0702 47.452C36.497 52.0251 30.3623 54.6977 23.8992 54.9326C17.436 55.1674 11.1235 52.9472 6.23047 48.7181C8.53102 51.3799 11.3556 53.5389 14.5278 55.0603C17.7 56.5818 21.1518 57.4329 24.6677 57.5608C28.1836 57.6886 31.6881 57.0903 34.9624 55.8032C38.2367 54.5161 41.2106 52.5679 43.6983 50.0802C46.1861 47.5925 48.1344 44.6186 49.4215 41.3443C50.7086 38.07 51.307 34.5655 51.1792 31.0497C51.0514 27.5338 50.2003 24.082 48.6789 20.9097C47.1575 17.7375 44.9985 14.9129 42.3368 12.6123Z" fill="#377DE2"/>
<path d="M43.0273 13.2344C47.5453 18.0871 50.0039 24.5037 49.8855 31.133C49.7671 37.7623 47.0809 44.0869 42.3924 48.7752C37.704 53.4635 31.3792 56.1496 24.75 56.2678C18.1207 56.386 11.7042 53.9272 6.85156 49.409C9.19412 51.9266 12.02 53.9463 15.1604 55.3476C18.3008 56.7488 21.6913 57.5029 25.1296 57.5648C28.5679 57.6268 31.9834 56.9952 35.1723 55.7079C38.3611 54.4206 41.2578 52.5039 43.6894 50.0723C46.1211 47.6407 48.0379 44.744 49.3253 41.5552C50.6127 38.3665 51.2444 34.951 51.1826 31.5127C51.1207 28.0744 50.3667 24.6838 48.9656 21.5434C47.5644 18.4029 45.5447 15.577 43.0273 13.2344Z" fill="#2266D3"/>
<path d="M25.5974 6.38184C19.6378 6.3823 13.865 8.46149 9.27375 12.2611C4.6825 16.0607 1.56036 21.3428 0.445312 27.1971L0.447415 27.2003L7.58009 34.3327C7.78071 34.5327 8.05241 34.6449 8.33566 34.6449C8.6189 34.6449 8.89059 34.5327 9.09122 34.3327L10.0228 33.398C10.2217 33.1975 10.3334 32.9265 10.3334 32.644C10.3334 32.3616 10.2217 32.0905 10.0228 31.8901C9.82289 31.6894 9.71066 31.4178 9.71066 31.1346C9.71066 30.8514 9.82289 30.5798 10.0228 30.3792L19.3289 21.0727C19.6289 20.7725 19.7974 20.3655 19.7974 19.9411C19.7974 19.5166 19.6289 19.1096 19.3289 18.8094L15.7947 15.2785C15.6012 15.0862 15.4476 14.8576 15.3426 14.6058C15.2377 14.354 15.1835 14.0839 15.1831 13.8111C15.1828 13.5383 15.2363 13.2681 15.3406 13.016C15.4449 12.764 15.5979 12.535 15.791 12.3422C15.984 12.1494 16.2131 11.9966 16.4653 11.8925C16.7175 11.7885 16.9877 11.7353 17.2605 11.7359C17.5333 11.7366 17.8033 11.7911 18.055 11.8963C18.3067 12.0015 18.5352 12.1553 18.7273 12.349L21.7684 15.3871C21.9165 15.5361 22.0926 15.6544 22.2866 15.7352C22.4806 15.816 22.6886 15.8577 22.8987 15.8578H25.1747C25.5992 15.8577 26.0063 15.689 26.3065 15.3888C26.6066 15.0886 26.7753 14.6816 26.7755 14.2571V6.40838C26.3849 6.39086 25.9922 6.38201 25.5974 6.38184Z" fill="#006CB6"/>
<path d="M38.3388 9.77246L30.1568 17.9542C29.8585 18.2549 29.6906 18.6609 29.6895 19.0844V31.3166C29.6894 31.7404 29.8575 32.1469 30.1568 32.4469L32.001 34.2908C32.1494 34.4392 32.3256 34.5568 32.5195 34.637C32.7135 34.7172 32.9213 34.7584 33.1312 34.7581H35.6475C36.072 34.7583 36.479 34.927 36.7792 35.2271C37.0794 35.5273 37.2481 35.9344 37.2482 36.3589V46.2318C37.2484 46.6563 37.417 47.0633 37.7172 47.3635C38.0174 47.6637 38.4245 47.8324 38.849 47.8325H40.3151C40.5255 47.833 40.7338 47.792 40.9283 47.7118C41.1227 47.6316 41.2995 47.5138 41.4483 47.3652L50.3739 38.4399C50.3754 38.4328 50.3775 38.4259 50.3796 38.4188C51.7853 32.9843 51.3686 27.2385 49.1935 22.0637C47.0183 16.8888 43.205 12.5708 38.3388 9.77246Z" fill="#006CB6"/>
<path d="M9.84977 38.4577L11.3338 36.9737C11.634 36.6735 12.0411 36.5049 12.4656 36.5049C12.8902 36.5049 13.2973 36.6735 13.5975 36.9737L15.4167 38.7928C15.7168 39.093 16.124 39.2617 16.5485 39.2618H22.6789C23.1034 39.2618 23.5105 39.4304 23.8106 39.7305C24.1108 40.0307 24.2794 40.4378 24.2794 40.8623V46.6376C24.2794 46.8478 24.2381 47.0559 24.1577 47.2501C24.0772 47.4443 23.9594 47.6208 23.8108 47.7694L17.5237 54.0565C17.3969 54.1833 17.2362 54.2709 17.061 54.3087C16.8857 54.3466 16.7032 54.333 16.5354 54.2697C16.3676 54.2064 16.2217 54.0961 16.115 53.9519C16.0084 53.8078 15.9456 53.6359 15.9342 53.4569L15.8327 51.872C15.8328 51.6617 15.7913 51.4536 15.7109 51.2594C15.6304 51.0652 15.5125 50.8887 15.3638 50.7401L10.0193 45.3959C9.73337 45.1098 9.56631 44.7261 9.5517 44.3219L9.3819 39.6476C9.37397 39.4278 9.41142 39.2087 9.49192 39.0039C9.57241 38.7992 9.69423 38.6133 9.84977 38.4577Z" fill="#006CB6"/>
<path d="M8.98388 49.1198C8.91491 49.1197 8.84664 49.106 8.78303 49.0794C8.71941 49.0528 8.6617 49.0138 8.61326 48.9647C5.38866 45.7471 3.14623 41.6783 2.14794 37.2337C1.14964 32.789 1.43671 28.1521 2.97559 23.8646C4.51448 19.577 7.24165 15.8159 10.8385 13.0206C14.4354 10.2252 18.7534 8.51113 23.2881 8.07849C23.4268 8.06566 23.5649 8.10822 23.6722 8.19687C23.7796 8.28552 23.8475 8.41305 23.8611 8.55161C23.8691 8.6205 23.8629 8.69027 23.843 8.7567C23.8232 8.82312 23.79 8.88481 23.7455 8.938C23.6563 9.04487 23.5291 9.11276 23.3906 9.12726C19.0584 9.54761 14.9347 11.1902 11.4999 13.8637C8.06514 16.5372 5.46066 20.1316 3.98982 24.2281C2.51899 28.3247 2.24235 32.7549 3.19213 37.0026C4.1419 41.2503 6.279 45.1408 9.35449 48.2208C9.40337 48.2697 9.44215 48.3276 9.4686 48.3915C9.49506 48.4553 9.50867 48.5237 9.50867 48.5928C9.50867 48.6619 9.49506 48.7303 9.4686 48.7941C9.44215 48.8579 9.40337 48.9159 9.35449 48.9647C9.3062 49.014 9.24853 49.0531 9.18487 49.0797C9.12122 49.1064 9.05288 49.12 8.98388 49.1198ZM25.4409 9.02212H25.4382C25.3344 9.0222 25.2328 8.9915 25.1463 8.93391C25.0599 8.87632 24.9925 8.7944 24.9525 8.69851C24.9126 8.60261 24.902 8.49704 24.922 8.39511C24.942 8.29318 24.9918 8.19947 25.065 8.1258C25.1131 8.07631 25.1708 8.03706 25.2345 8.01041C25.2982 7.98376 25.3666 7.97026 25.4356 7.97072H25.4382C25.5777 7.96967 25.7118 8.02406 25.8111 8.1219C25.9105 8.21975 25.9668 8.35305 25.9679 8.49247C25.9689 8.6319 25.9145 8.76603 25.8167 8.86535C25.7189 8.96468 25.5856 9.02107 25.4461 9.02212H25.4409Z" fill="#5E9CF7"/>
<path d="M54.4986 10.6874C54.4986 18.2133 46.4902 26.6206 44.3377 28.7452C44.1944 28.8868 44.0026 28.9685 43.8012 28.9736C43.5998 28.9788 43.4041 28.9071 43.2537 28.773C41.1396 26.8929 33.7015 19.7337 33.1542 11.6263C32.7402 5.49222 37.4523 0.120892 43.5991 0.00208435C45.0201 -0.0259825 46.4325 0.229648 47.7535 0.754018C49.0745 1.27839 50.2777 2.06096 51.2927 3.05596C52.3076 4.05095 53.1139 5.23837 53.6644 6.54875C54.2149 7.85912 54.4985 9.26613 54.4986 10.6874Z" fill="#F4B732"/>
<path d="M50.6947 2.51367C52.3075 4.43547 53.1897 6.86516 53.1857 9.37404C53.1857 16.8999 45.1772 25.3072 43.0247 27.4318C42.8815 27.5734 42.6896 27.6551 42.4883 27.6602C42.2869 27.6654 42.0911 27.5937 41.9408 27.4597C41.7042 27.2494 41.3956 26.9671 41.041 26.6288C41.9665 27.5966 42.7585 28.3323 43.255 28.7739C43.4054 28.9079 43.6011 28.9797 43.8025 28.9745C44.0039 28.9693 44.1957 28.8876 44.339 28.746C46.4915 26.6222 54.5 18.215 54.5 10.6883C54.5014 9.13046 54.1614 7.59124 53.504 6.17893C52.8466 4.76662 51.8876 3.51552 50.6947 2.51367Z" fill="#F4B732"/>
<path d="M48.7621 15.712C51.4934 12.9807 51.4934 8.55246 48.7621 5.82117C46.0308 3.08988 41.6025 3.08989 38.8712 5.82117C36.1399 8.55246 36.1399 12.9807 38.8712 15.712C41.6025 18.4433 46.0308 18.4433 48.7621 15.712Z" fill="#006CB6"/>
<path d="M43.0149 14.3641C42.862 14.3642 42.7106 14.3341 42.5693 14.2754C42.4281 14.2168 42.2998 14.1308 42.192 14.0224L39.8999 11.7304C39.684 11.5116 39.5634 11.2163 39.5645 10.909C39.5655 10.6016 39.688 10.3072 39.9054 10.0898C40.1227 9.8725 40.4171 9.74996 40.7245 9.74894C41.0318 9.74792 41.3271 9.86851 41.5459 10.0844L43.0149 11.5535L45.9299 8.63819C46.1487 8.42231 46.444 8.30172 46.7513 8.30274C47.0587 8.30376 47.3531 8.4263 47.5705 8.64363C47.7878 8.86096 47.9103 9.15543 47.9114 9.46277C47.9124 9.77012 47.7918 10.0654 47.5759 10.2842L43.8379 14.0234C43.7299 14.1316 43.6016 14.2174 43.4604 14.2758C43.3192 14.3343 43.1678 14.3643 43.0149 14.3641Z" fill="white"/>
</svg>
