<svg width="34" height="37" viewBox="0 0 34 37" fill="none" xmlns="http://www.w3.org/2000/svg">
<path d="M31.8599 5.98759C30.0029 5.34969 28.5153 3.85364 27.8802 1.98562C27.4764 0.7978 26.3644 0 25.1129 0H8.98764C7.73637 0 6.62413 0.7978 6.2203 1.98562C5.58522 3.85364 4.09762 5.34969 2.2406 5.98759C1.05899 6.39368 0.265137 7.50902 0.265137 8.76311V12.8424C0.265137 18.1655 1.86017 23.291 4.87794 27.665C7.63908 31.6669 11.4439 34.7986 15.8816 36.7219C16.253 36.883 16.6515 36.9633 17.0502 36.9633C17.4487 36.9633 17.8472 36.883 18.2186 36.7219C22.6563 34.7989 26.4611 31.6669 29.2223 27.665C32.24 23.291 33.8354 18.1653 33.8354 12.8424V8.76311C33.8354 7.50902 33.0415 6.39368 31.8599 5.98759ZM31.6695 12.8424C31.6695 17.7239 30.2068 22.4241 27.4394 26.4351C24.909 30.1029 21.4225 32.9729 17.3574 34.7346C17.1625 34.8192 16.9383 34.8195 16.7429 34.7346C12.6774 32.9729 9.19125 30.1029 6.66079 26.4351C3.89373 22.4244 2.43096 17.7242 2.43096 12.8424V8.76311C2.43096 8.43373 2.63739 8.14157 2.94449 8.0361C5.43039 7.18189 7.42165 5.18077 8.27078 2.68274C8.37597 2.37366 8.6639 2.16582 8.98764 2.16582H25.1129C25.4363 2.16582 25.7245 2.37366 25.8297 2.68274C26.6788 5.18077 28.6701 7.18189 31.156 8.0361C31.4631 8.14157 31.6695 8.43373 31.6695 8.76311V12.8424Z" fill="#FFF8E9"/>
<path d="M21.6516 14.0397H21.578V10.9557C21.578 8.45904 19.5467 6.42773 17.0501 6.42773C14.5535 6.42773 12.5222 8.45904 12.5222 10.9557V14.0397H12.4485C11.0106 14.0397 9.84082 15.2097 9.84082 16.6477V22.8801C9.84082 25.558 12.0196 27.7371 14.6973 27.7371H19.4029C22.0808 27.7371 24.2593 25.558 24.2593 22.8801V16.6477C24.2593 15.2097 23.0896 14.0397 21.6516 14.0397ZM14.688 10.9557C14.688 9.65334 15.7478 8.59355 17.0501 8.59355C18.3524 8.59355 19.4122 9.65334 19.4122 10.9557V14.04H14.688V10.9557ZM22.0935 22.8801C22.0935 24.364 20.8865 25.571 19.4029 25.571H14.6973C13.2136 25.571 12.0066 24.364 12.0066 22.8801V16.6477C12.0066 16.404 12.2049 16.2058 12.4485 16.2058H21.6516C21.8952 16.2058 22.0935 16.404 22.0935 16.6477V22.8801Z" fill="#FFF8E9"/>
</svg>
