<svg width="92" height="92" viewBox="0 0 92 92" fill="none" xmlns="http://www.w3.org/2000/svg">
<g clip-path="url(#clip0_1_4417)">
<path d="M46.3962 0.212158C34.8512 0.212158 26.2258 4.50126 21.6739 7.43437L16.1871 21.0951C16.1871 46.2522 37.4018 66.6409 62.5589 66.6409C72.2462 66.6409 83.0243 61.998 90.2375 56.4156C90.3988 56.2907 90.9108 55.4517 90.9108 55.4517C90.9426 55.2575 91.947 51.258 91.947 45.763C91.947 20.6059 71.5533 0.212158 46.3962 0.212158Z" fill="white"/>
<path d="M62.5548 65.3544C37.3977 65.3544 17.004 44.9607 17.004 19.8036L2.59497 58.3087C8.0432 77.3645 25.5906 91.3132 46.3961 91.3132C68.0407 91.3132 86.43 76.1332 90.9106 55.4512C83.1297 61.6488 73.2755 65.3544 62.5548 65.3544Z" fill="white"/>
<path d="M83.4923 74.8809H25.2077C20.5375 74.8809 16.7518 71.095 16.7518 66.4251V36.7033C16.7518 32.0332 20.5377 28.2474 25.2077 28.2474H83.4923C88.1624 28.2474 91.9481 32.0333 91.9481 36.7033V66.4251C91.9481 71.0952 88.1622 74.8809 83.4923 74.8809Z" fill="#F4B732"/>
<path d="M83.4923 73.6301H25.2078C20.5377 73.6301 16.7518 69.8442 16.7518 65.1741V70.8906C16.7518 75.5607 20.5377 79.3466 25.2078 79.3466H83.4925C88.1626 79.3466 91.9485 75.5607 91.9485 70.8906V65.1741C91.9483 69.8442 88.1624 73.6301 83.4923 73.6301Z" fill="#F4B732"/>
<path d="M75.8648 28.2473V18.7456C75.8648 14.0754 72.0789 10.2896 67.4088 10.2896H17.8245C7.47269 18.6396 0.846924 31.4278 0.846924 45.7629C0.846924 47.3118 0.924271 48.8427 1.07521 50.3519C1.09236 50.5225 1.11666 50.6935 1.14756 50.8639C1.67773 53.7943 3.96796 56.1001 6.87142 56.7617C8.26706 57.0797 9.82364 57.3608 10.9653 57.3608H17.9663L75.8648 28.2473Z" fill="#006CB6"/>
<path d="M17.0358 56.2081H9.12264C5.35926 56.2081 2.17016 53.7496 1.07373 50.3511C1.34686 53.0819 1.86131 55.7415 2.59513 58.3086C4.146 60.1897 6.49427 61.3889 9.12264 61.3889H17.0358V56.2081Z" fill="#006CB6"/>
<path d="M25.2078 28.2474C20.5377 28.2474 16.7518 32.0333 16.7518 36.7033V56.2088L68.861 57.3608C73.5312 57.3608 75.8646 53.7971 75.8646 47.753V28.2474H25.2078Z" fill="#FAE1AC"/>
<path d="M67.4086 56.2082H16.7518V61.3889H67.4086C72.0787 61.3889 75.8646 57.603 75.8646 52.9328V47.7522C75.8646 52.4223 72.0787 56.2082 67.4086 56.2082Z" fill="#FAE1AC"/>
<path d="M30.985 50.6429C30.985 47.2927 22.208 47.8742 22.208 41.3952C22.208 37.2421 25.8351 35.6639 29.296 35.6639C30.7635 35.6639 34.8059 35.9408 34.8059 38.1006C34.8059 38.8481 34.3075 40.3708 33.0893 40.3708C32.0925 40.3708 31.5664 39.3187 29.296 39.3187C27.3302 39.3187 26.5273 40.1216 26.5273 40.9799C26.5273 43.7487 35.3043 43.2228 35.3043 50.1999C35.3043 54.1868 32.3971 56.3464 28.3823 56.3464C24.7552 56.3464 21.7096 54.5744 21.7096 52.7472C21.7096 51.8056 22.5402 50.4213 23.5924 50.4213C24.8937 50.4213 25.7243 52.4703 28.2993 52.4703C29.5729 52.4705 30.985 51.9721 30.985 50.6429Z" fill="#31ABFF"/>
<path d="M47.1805 48.8992C46.8206 49.5083 46.267 49.7021 45.7408 49.7021C45.2424 49.7021 44.7163 49.5358 44.3841 48.8992L41.7537 44.0815V54.7411C41.7537 55.6273 40.6739 56.0701 39.5941 56.0701C38.5143 56.0701 37.4344 55.6273 37.4344 54.7411V37.9904C37.4344 36.4122 38.5143 35.8307 39.5941 35.8307C41.1446 35.8307 41.8091 35.9969 42.9443 37.9904L45.796 42.974L48.6478 37.9904C49.783 35.9969 50.4475 35.8307 51.998 35.8307C53.1055 35.8307 54.1577 36.4122 54.1577 37.9904V54.7411C54.1577 55.6273 53.0778 56.0701 51.998 56.0701C50.9182 56.0701 49.8384 55.6273 49.8384 54.7411V44.3584L47.1805 48.8992Z" fill="#31ABFF"/>
<path d="M61.4687 44.2752H65.6219C66.4523 44.2752 66.9232 45.0781 66.9232 45.9641C66.9232 46.7117 66.5354 47.5977 65.6219 47.5977H61.4687V52.3046H68.889C69.7195 52.3046 70.1902 53.1906 70.1902 54.215C70.1902 55.1011 69.8025 56.0701 68.889 56.0701H59.0322C58.0906 56.0701 57.1494 55.6273 57.1494 54.7411V37.1596C57.1494 36.2736 58.0908 35.8307 59.0322 35.8307H68.889C69.8025 35.8307 70.1902 36.7998 70.1902 37.6858C70.1902 38.7101 69.7195 39.5961 68.889 39.5961H61.4687V44.2752Z" fill="#31ABFF"/>
<path d="M78.8621 77.7105V89.6118L67.0468 77.7964L78.8621 77.7105Z" fill="#F4B732"/>
<path d="M15.4485 12.3447L26.5068 12.2643L21.6763 7.43378C19.3169 8.9541 18.0517 10.11 18.0417 10.1157C17.1494 10.8265 16.2845 11.5701 15.4485 12.3447Z" fill="#006CB6"/>
</g>
<defs>
<clipPath id="clip0_1_4417">
<rect width="91.1016" height="91.1016" fill="white" transform="translate(0.846924 0.21167)"/>
</clipPath>
</defs>
</svg>
