<svg width="37" height="36" viewBox="0 0 37 36" fill="none" xmlns="http://www.w3.org/2000/svg">
<path d="M18.2722 35.7319C17.0324 35.7319 16.1605 34.8015 15.3916 33.982C15.0279 33.5943 14.5296 33.0628 14.2535 32.9888C13.9449 32.9075 13.2507 33.1145 12.6918 33.2812C11.6362 33.5972 10.436 33.958 9.39766 33.3559C8.34494 32.7475 8.057 31.5192 7.8038 30.4354C7.67295 29.8776 7.51031 29.1823 7.29481 28.9668C7.07932 28.7513 6.38404 28.5891 5.82515 28.4579C4.74213 28.2035 3.5142 27.9152 2.90579 26.864C2.30476 25.8235 2.66331 24.6255 2.98045 23.5687C3.14716 23.012 3.35526 22.3179 3.27283 22.0092C3.19928 21.732 2.66737 21.2337 2.27963 20.87C1.46015 20.1012 0.529785 19.2292 0.529785 17.9895C0.529785 16.7497 1.46015 15.8778 2.27963 15.1089C2.66737 14.7452 3.19891 14.2469 3.27283 13.9708C3.35526 13.6611 3.14716 12.9669 2.98045 12.4091C2.66331 11.3523 2.30476 10.1544 2.90579 9.11494C3.5142 8.06223 4.7425 7.77428 5.82626 7.52109C6.38404 7.39023 7.07932 7.2276 7.29481 7.0121C7.51031 6.7966 7.67258 6.10132 7.8038 5.54244C8.05811 4.45941 8.34642 3.23149 9.39766 2.62307C10.4415 2.02094 11.6384 2.3817 12.6929 2.69774C13.2496 2.86444 13.9471 3.07477 14.2524 2.99012C14.5296 2.91656 15.0279 2.38466 15.3916 1.99691C16.1605 1.17744 17.0324 0.24707 18.2722 0.24707C19.5119 0.24707 20.3839 1.17744 21.1527 1.99691C21.5165 2.38466 22.0147 2.91619 22.2908 2.99012C22.5995 3.07144 23.2937 2.86444 23.8525 2.69774C24.9093 2.3817 26.1103 2.02205 27.1467 2.62307C28.1994 3.23149 28.4874 4.45978 28.7406 5.54355C28.8714 6.10132 29.0341 6.7966 29.2496 7.0121C29.4651 7.2276 30.1603 7.38987 30.7192 7.52109C31.8022 7.77539 33.0302 8.06371 33.6386 9.11494C34.2396 10.1555 33.8811 11.3534 33.5639 12.4102C33.3972 12.9669 33.1891 13.6611 33.2715 13.9697C33.3451 14.2469 33.877 14.7452 34.2647 15.1089C35.0842 15.8778 36.0146 16.7497 36.0146 17.9895C36.0146 19.2292 35.0842 20.1012 34.2647 20.87C33.877 21.2337 33.3455 21.732 33.2715 22.0081C33.1891 22.3179 33.3972 23.012 33.5639 23.5698C33.8811 24.6266 34.2396 25.8246 33.6386 26.864C33.0302 27.9167 31.8019 28.2047 30.7181 28.4579C30.1603 28.5887 29.4651 28.7513 29.2496 28.9668C29.0341 29.1823 28.8718 29.8776 28.7406 30.4365C28.4863 31.5195 28.198 32.7475 27.1467 33.3559C26.104 33.9591 24.906 33.5972 23.8514 33.2812C23.2948 33.1145 22.5973 32.9042 22.2919 32.9888C22.0147 33.0624 21.5165 33.5943 21.1527 33.982C20.3839 34.8015 19.5119 35.7319 18.2722 35.7319ZM14.089 30.7548C14.3371 30.7548 14.584 30.7817 14.8265 30.8468C15.7132 31.0841 16.3719 31.7857 17.0084 32.4647C17.3766 32.8569 17.9927 33.5141 18.2722 33.5141C18.5516 33.5141 19.1678 32.8569 19.536 32.4647C20.1728 31.7857 20.8312 31.0841 21.719 30.8468C22.6342 30.5999 23.6208 30.8967 24.4879 31.1566C24.9559 31.2963 25.8286 31.5628 26.0363 31.436C26.2574 31.3081 26.4673 30.4117 26.5812 29.9297C26.7967 29.0116 27.0188 28.0605 27.6816 27.3989C28.3432 26.7361 29.2939 26.514 30.2125 26.2985C30.7281 26.1772 31.5908 25.9758 31.7198 25.7525C31.8411 25.5437 31.5801 24.6728 31.4393 24.206C31.1794 23.3362 30.8837 22.3519 31.1295 21.4348C31.3668 20.5481 32.0684 19.8894 32.7474 19.2529C33.1396 18.8851 33.7968 18.2689 33.7968 17.9895C33.7968 17.71 33.1396 17.0938 32.7474 16.7257C32.0684 16.0888 31.3668 15.4305 31.1295 14.5426C30.8837 13.6263 31.1794 12.642 31.4393 11.7737C31.5801 11.3058 31.8411 10.4364 31.7187 10.2253C31.5908 10.0043 30.6945 9.79433 30.2125 9.68048C29.2943 9.46499 28.3432 9.24284 27.6816 8.58008C27.0188 7.91844 26.7967 6.96774 26.5812 6.04921C26.4599 5.53357 26.2585 4.67084 26.0352 4.54184C25.8282 4.42393 24.9577 4.68267 24.4887 4.82239C23.62 5.08224 22.6357 5.37906 21.7175 5.13214C20.8308 4.89484 20.1721 4.19328 19.5356 3.51426C19.1678 3.12208 18.5516 2.46487 18.2722 2.46487C17.9927 2.46487 17.3766 3.12208 17.0084 3.51426C16.3715 4.19328 15.7132 4.89484 14.8254 5.13214C13.9101 5.37906 12.9236 5.08224 12.0564 4.82239C11.5885 4.68267 10.718 4.41838 10.508 4.54295C10.287 4.67084 10.077 5.5672 9.9632 6.04921C9.7477 6.96737 9.52555 7.91844 8.8628 8.58008C8.20116 9.24284 7.25046 9.46499 6.33192 9.68048C5.81628 9.80172 4.95356 10.0032 4.82456 10.2264C4.70332 10.4353 4.96428 11.3061 5.10511 11.773C5.36496 12.6427 5.66067 13.6271 5.41486 14.5441C5.17755 15.4309 4.47599 16.0896 3.79697 16.7261C3.40479 17.0938 2.74759 17.71 2.74759 17.9895C2.74759 18.2689 3.40479 18.8851 3.79697 19.2532C4.47599 19.8901 5.17755 20.5484 5.41486 21.4363C5.66067 22.3526 5.36496 23.337 5.10511 24.2052C4.96428 24.6732 4.70332 25.5426 4.82566 25.7536C4.95356 25.9747 5.84992 26.1846 6.33192 26.2985C7.25009 26.514 8.20116 26.7361 8.8628 27.3989C9.52555 28.0605 9.7477 29.0112 9.9632 29.9297C10.0844 30.4454 10.2859 31.3081 10.5091 31.4371C10.7191 31.5583 11.5877 31.2974 12.0557 31.1566C12.6952 30.9651 13.3971 30.7548 14.089 30.7548ZM23.755 26.8607C23.5805 26.8607 23.4053 26.8196 23.2449 26.7361L18.2722 24.1587L13.2995 26.7361C12.9258 26.9309 12.4745 26.8943 12.1344 26.6463C11.7944 26.3972 11.6243 25.9769 11.6968 25.561L12.6434 20.1237L8.63326 16.271C8.32683 15.9776 8.2152 15.5358 8.34531 15.1318C8.47542 14.7278 8.82399 14.4343 9.24426 14.3737L14.7995 13.5779L17.2805 8.62148C17.6575 7.87224 18.8876 7.87224 19.2643 8.62148L21.7464 13.5779L27.3005 14.3737C27.7208 14.4343 28.0693 14.7278 28.1994 15.1318C28.3295 15.5358 28.2179 15.9776 27.9115 16.271L23.9013 20.1237L24.848 25.561C24.9204 25.9769 24.7504 26.3972 24.4103 26.6463C24.2163 26.7882 23.9867 26.8607 23.755 26.8607ZM11.8084 16.247L14.1789 18.5254C14.7115 19.0355 14.9544 19.7752 14.8287 20.5041L14.2657 23.7376L17.2524 22.19C17.8915 21.8588 18.6536 21.8588 19.2927 22.19L22.2794 23.7376L21.7164 20.5052C21.5908 19.7752 21.8332 19.0355 22.3662 18.5247L24.7367 16.2474L21.4318 15.7743C20.7129 15.6726 20.0889 15.222 19.7629 14.5711L18.2722 11.5948L16.7822 14.5718C16.4562 15.2217 15.8326 15.6722 15.1122 15.7739L11.8084 16.247Z" fill="#FFF8E9"/>
</svg>
