<svg width="84" height="41" viewBox="0 0 84 41" fill="none" xmlns="http://www.w3.org/2000/svg">
<path d="M63.9608 16.3669V39.4799C63.9608 40.0989 63.3922 40.5978 62.6949 40.4104C59.865 39.772 56.2508 39.2481 52.1043 38.8848C41.3011 37.9386 25.0369 38.0963 14.786 40.4275C14.1745 40.5665 13.5916 40.1051 13.5957 39.4669V16.3465C13.5957 15.7087 14.2056 15.1971 14.9138 15.434L37.8242 22.1672C38.4323 22.3458 40.0675 22.0686 40.774 21.861L62.7118 15.4137C63.3483 15.2267 63.9744 15.7137 63.9608 16.3669Z" fill="#1C8DDA"/>
<path d="M63.9607 16.3669V17.9671L41.3222 24.6202C40.1811 24.9555 38.3191 25.2328 37.2761 24.9263L13.5957 17.967V16.3465C13.5957 15.7087 14.2055 15.1971 14.9137 15.434L37.8242 22.1672C38.4323 22.3458 40.0675 22.0686 40.774 21.861L62.7118 15.4137C63.3483 15.2267 63.9743 15.7137 63.9607 16.3669Z" fill="#174F75"/>
<path d="M40.2792 0.132444L76.5404 10.7891C77.6668 11.1201 77.8842 12.258 77.0428 12.9629C76.7388 13.2175 76.2059 13.4749 75.4986 13.6827L41.3209 23.727C40.1798 24.0623 38.3179 24.3396 37.2748 24.0331L1.0137 13.3765C-0.112813 13.0455 -0.33003 11.9075 0.511297 11.2026C0.815225 10.9481 1.34816 10.6907 2.05544 10.4829L36.233 0.438581C37.3741 0.103247 39.2362 -0.174063 40.2792 0.132444Z" fill="#006CB6"/>
<path d="M42.1368 11.1084C41.5985 11.1084 41.1621 11.5448 41.1621 12.0831C41.1621 12.6215 41.5985 13.0579 42.1368 13.0579H75.6004V27.6463C75.6004 28.1847 76.0368 28.6211 76.5751 28.6211C77.1134 28.6211 77.5498 28.1847 77.5498 27.6463V12.0832C77.5498 11.5449 77.1134 11.1085 76.5751 11.1085L42.1368 11.1084Z" fill="#FFC344"/>
<path d="M76.5742 26.6699C80.4372 26.6699 82.3863 31.3631 79.651 34.0982C76.9157 36.8335 72.2227 34.8844 72.2227 31.0214C72.2227 28.6185 74.1713 26.6699 76.5742 26.6699Z" fill="#FFC344"/>
<path d="M77.5491 34.3976C77.5491 33.8593 77.1127 33.4229 76.5743 33.4229C76.036 33.4229 75.5996 33.8593 75.5996 34.3976V38.9825C75.5996 39.5208 76.036 39.9572 76.5743 39.9572C77.1127 39.9572 77.5491 39.5208 77.5491 38.9825V34.3976Z" fill="#FFC344"/>
<path d="M79.652 32.719C79.2714 32.3385 78.6543 32.3385 78.2737 32.719C77.8931 33.0996 77.8931 33.7167 78.2737 34.0973L81.5157 37.3394C81.8963 37.7199 82.5134 37.7199 82.894 37.3394C83.2745 36.9588 83.2745 36.3416 82.894 35.9611L79.652 32.719Z" fill="#FFC344"/>
<path d="M74.8764 34.0973C75.257 33.7167 75.257 33.0996 74.8764 32.719C74.4959 32.3385 73.8787 32.3385 73.4981 32.719L70.2561 35.961C69.8756 36.3416 69.8756 36.9587 70.2561 37.3393C70.6367 37.7199 71.2538 37.7199 71.6344 37.3393L74.8764 34.0973Z" fill="#FFC344"/>
<path d="M38.7762 7.74805C42.6248 7.74805 44.566 12.4235 41.8413 15.1479C39.1164 17.8727 34.4414 15.9312 34.4414 12.0829C34.4414 9.68913 36.3825 7.74805 38.7762 7.74805Z" fill="#1C8DDA"/>
</svg>
